<?xml version="1.0" encoding="utf-8"?>
<!-- Generator: Adobe Illustrator 16.0.0, SVG Export Plug-In . SVG Version: 6.00 Build 0)  -->
<!DOCTYPE svg PUBLIC "-//W3C//DTD SVG 1.1//EN" "http://www.w3.org/Graphics/SVG/1.1/DTD/svg11.dtd">
<svg version="1.1" id="Layer_1" xmlns="http://www.w3.org/2000/svg" xmlns:xlink="http://www.w3.org/1999/xlink" x="0px" y="0px"
	 width="640px" height="640px" viewBox="0 0 640 640" enable-background="new 0 0 640 640" xml:space="preserve">
<g>
	<path fill="#35459B" d="M250.052,450.929v41.884c-1.71-7.102-4.993-15.131-11.183-22.452
		c-13.582-16.061-33.579-19.432-47.96-19.432h-25.68h-0.635H88.059v39.118h23.35v105.485h39.121V490.047h14.065v105.485h39.12
		V584.53l7.202,11.002h39.136h4.86h34.258V450.929H250.052z M203.714,526.101V492.05c6.196,2.5,8.963,7.44,8.963,15.421
		C212.678,513.356,210.863,520.566,203.714,526.101z M230.623,554.478c9.884-8.61,16.493-19.521,19.43-31.923v61.516
		L230.623,554.478z"/>
	<path fill="#35459B" d="M514.233,495.482l-1.599-1.088c-1.245-0.844-3.034-2.06-4.627-3.23c2.757-0.798,7.727-1.646,16.384-1.646
		c1.248,0,2.471,0.017,3.656,0.044l9.813,0.229v-39.345h-9.589c-31.005,0-52.018,9.062-59.232,24.826v-24.344h-69.916h-4.365H353.67
		l-17.239,29.132v-29.132H297.31v144.604h39.121v-38.655l1.399-2.367l20.597,41.022h36.332h7.441l75.233,0.482
		c15.072-0.229,30.488-4.865,42.298-12.717c15.839-10.54,24.562-26.104,24.562-43.825
		C544.294,516.059,525.479,503.182,514.233,495.482z M394.759,580.709l-33.246-66.223l33.246-56.183V580.709z M476.455,556.39
		l-42.578,0.024v-8.949h26.802v-39.118h-26.802v-18.3h32.42c0.721,20.512,15.194,30.429,25.84,37.718
		c4.558,3.12,13.039,8.925,13.039,11.708C505.176,550.565,488.576,556.39,476.455,556.39z"/>
</g>
<path fill="#35459B" d="M580.791,20.871c-17.471,0-43.355,11.4-51.984,40.565v-40.55h-24.551c-12.749,0-26.392,7.242-37.083,19.164
	c-10.696-11.922-24.337-19.164-37.085-19.164h-24.554v42.204c-2.526-7.144-5.829-13.782-9.867-19.673
	c-10.911-15.928-25.764-24.701-41.814-24.701c-16.054,0-30.904,8.772-41.819,24.701c-4.33,6.322-7.821,13.497-10.413,21.241V20.871
	h-40.84v14.703c-10.869-9.985-21.948-14.688-29.884-14.688h-20.568v41.972c-2.451-6.622-5.522-12.8-9.191-18.347
	c-11.149-16.868-26.36-26.158-42.826-26.158c-16.467,0-31.677,9.29-42.829,26.158c-2.725,4.122-5.118,8.593-7.179,13.332v-38.07
	l-10.855,0.14c-39.325,0.502-65.625,20.124-67.002,49.989c-0.396,8.652,2.229,17.676,7.81,26.817
	c3.241,5.313,8.114,10.96,13.294,16.962c10.048,11.644,22.556,26.135,22.556,38.606c0,9.818-9.415,21.027-30.456,23.94
	c-2.256,0.312-4.654,0.64-7.151,0.979l-9.282,1.255v41.222l12.157-1.651c3.493-0.475,6.818-0.928,9.878-1.354
	c19.494-2.694,36.03-10.44,47.819-22.404c9.856-9.996,15.91-22.351,17.462-35.336c0.316,0.5,0.624,1.014,0.949,1.506
	c11.152,16.866,26.361,26.152,42.829,26.152c16.466,0,31.677-9.287,42.826-26.152c3.669-5.549,6.74-11.725,9.191-18.347v39.987
	l11.71-1.098c6.491-0.603,12.949-1.142,19.198-1.604l9.932-0.73V95.86c5.32,15.222,9.611,37.162,9.611,68.319v13.886l11.191-0.495
	c6.299-0.275,12.766-0.502,19.216-0.674l10.433-0.275v-44.63c2.591,7.744,6.083,14.922,10.413,21.243
	c10.915,15.928,25.765,24.701,41.819,24.701c16.051,0,30.903-8.772,41.814-24.701c4.038-5.891,7.341-12.53,9.867-19.673v46.256
	l9.76,0.881c6.393,0.574,12.854,1.218,19.195,1.912l11.888,1.304v-33.805l9.622,1.413c6.469,0.856,12.963,1.789,19.307,2.771
	l12.662,2.01v33.695l8.814,1.582c6.314,1.14,12.759,2.385,19.147,3.696l9.945,2.044v0.022l8.306,1.917
	c6.535,1.513,12.965,3.093,19.109,4.697l13.426,3.509v-67.32l6.59,1.1v68.228l7.542,2.335c6.452,2,12.857,4.114,19.033,6.28
	l14.268,5.003V20.871H580.791z M99.612,108.573c-5.53-8.113-11.738-15.311-17.16-21.593c-3.674-4.257-7.839-9.083-9.333-11.533
	c-1.239-2.033-1.726-3.423-1.854-3.959c0.755-8.046,16.974-10.542,26.543-10.741l9.355-0.194
	c-5.032,12.614-7.719,26.999-7.719,41.926C99.444,104.522,99.511,106.55,99.612,108.573z M158.312,145.756
	c-4.633,0-18.027-14.88-18.027-43.279s13.394-43.281,18.027-43.281s18.027,14.882,18.027,43.281S162.945,145.756,158.312,145.756z
	 M362.063,130.104c-3.263,4.803-6.545,6.991-8.211,6.991c-1.669,0-4.949-2.188-8.217-6.991c-5.406-7.953-8.507-19.538-8.507-31.78
	c0-12.242,3.101-23.825,8.51-31.775c3.265-4.804,6.545-6.994,8.214-6.994c1.666,0,4.945,2.19,8.214,6.996
	c5.406,7.948,8.506,19.528,8.506,31.772C370.572,110.566,367.473,122.151,362.063,130.104z M573.306,99.847l-6.59-1.103v-15.95
	c0-9.922,3.138-15.19,6.59-17.985V99.847z"/>
<g>
	<g>
		<g>
			<polygon fill="#CBBE2C" points="409.295,424.924 405.032,437.712 575.402,437.712 575.402,424.924 			"/>
			<polygon fill="#CBBE2C" points="313.13,424.924 65.352,424.924 65.352,437.712 323.361,437.712 			"/>
		</g>
		<rect x="65.44" y="608.749" fill="#CBBE2C" width="509.962" height="12.785"/>
	</g>
	<path fill="#CBBE2C" d="M466.477,216.886c-9.789-4.407-20.725-8.216-31.256-11.305c-27.154-7.956-74.809-12.104-112.093-2.365
		c-12.551,3.28-24.392,7.667-35.26,12.773c-105.572-43.744-209.127-10.576-254.526,42.147c0.773-0.307,1.587-0.632,2.439-0.967
		c27.914-25.739,76.918-48.161,142.079-51.399c-38.274,5.507-70.241,19.093-95.459,36.955c0.857-0.189,1.721-0.376,2.587-0.554
		c34.628-18.482,74.449-30.158,119.207-32.718c-29.977,4.754-56.717,13.918-80.816,28.325c0.664-0.005,1.328-0.01,1.991-0.005
		c16.141-6.299,60.157-23.642,100.425-24.631c-28.542,4.656-51.866,14.294-74.442,27.466c0.515,0.118,1.027,0.239,1.542,0.364
		c27.321-10.588,57.623-20.478,94.248-21.905c-30.963,4.095-55.176,14.132-76.758,28.072c0.405,0.194,0.811,0.386,1.212,0.585
		c37.897-15.812,79.774-23.524,105.441-24.516c-13.514,7.107-25.175,15.357-34.305,23.945c0.42-0.012,0.842-0.022,1.272-0.032
		c28.512-19.925,76.132-37.789,122.747-39.431c-37.885,4.789-71.045,20.867-93.05,39.61c0.459,0.032,0.946,0.074,1.456,0.118
		c29.215-17.938,73.812-33.446,115.456-35.274c-35.955,4.806-68.067,20.559-90.049,39.022c0.581,0.118,1.164,0.238,1.754,0.361
		c28.924-17.102,70.834-31.839,107.865-35.025c-33.736,5.665-64.945,21.979-86.274,40.646c0.47,0.147,0.935,0.29,1.404,0.443
		c26.834-17.387,66.823-32.058,104.207-34.359c-31.227,4.109-65.733,22.739-87.464,40.722c0.342,0.15,0.682,0.308,1.021,0.462
		c0.062-0.037,0.113-0.079,0.177-0.115c28.508-16.832,73.149-33.237,106.884-35.683c-17.336,7.454-32.122,17.454-43.292,28.36
		c0.35-0.027,0.707-0.049,1.065-0.076c26.01-17.897,66.187-32.666,106.278-34.682c-32.226,4.759-58.383,18.367-76.907,35.354
		c0.404,0.044,0.803,0.091,1.211,0.138c25.448-16.312,63.666-29.184,99.875-31.312c-31.63,4.901-57.735,18.502-76.144,35.951
		c0.305,0.082,0.61,0.167,0.915,0.253c24.572-16.455,61.252-28.507,95.414-32.026c-26.659,5.13-56.683,23.17-74.835,39.332
		c0.28,0.121,0.559,0.241,0.842,0.364c24.104-14.848,62.687-30.601,94.695-33.032c-29.041,4.405-60.423,24.888-77.173,42.054
		c0.231,0.135,0.46,0.278,0.688,0.416c25.446-16.523,69.624-35.387,104.507-37.528C584.721,221.63,523.151,201.376,466.477,216.886z
		"/>
</g>
<g>
	<path fill="#FFDE14" d="M242.208,507.471c0-19.843-11.329-46.953-51.298-46.953h-16.725v125.425h19.94v-24.107
		c1.796-0.379,3.576-0.814,5.333-1.323l16.643,25.431h23.708l-22.119-33.691C232.133,542.821,242.208,527.631,242.208,507.471z
		 M194.125,541.229v-60.687c23.195,1.229,28.144,15.225,28.144,26.928C222.269,515.293,219.468,533.872,194.125,541.229z"/>
	<rect x="259.642" y="460.518" fill="#FFDE14" width="19.939" height="125.425"/>
	<polygon fill="#FFDE14" points="97.648,480.455 120.998,480.455 120.998,585.942 140.937,585.942 140.937,480.455 164.289,480.455 
		164.289,460.518 97.648,460.518 	"/>
	<polygon fill="#FFDE14" points="404.349,585.942 465.844,585.942 465.844,566.004 424.287,566.004 424.287,537.875 
		451.087,537.875 451.087,517.937 424.287,517.937 424.287,480.455 459.448,480.455 459.448,460.518 404.349,460.518 	"/>
	<polygon fill="#FFDE14" points="382.306,460.518 359.138,460.518 326.841,515.099 326.841,460.518 306.901,460.518 
		306.901,585.942 326.841,585.942 326.841,554.254 338.522,534.512 364.342,585.942 386.656,585.942 350.594,514.109 	"/>
	<g>
		<path fill="#FFDE14" d="M508.817,503.398c-5.805-3.975-13.026-8.524-13.026-12.166c0-10.521,18.76-11.58,32.481-11.258v-19.939
			c-28.764,0-52.421,8.468-52.421,28.407c0,16.509,11.531,24.444,21.703,31.411c10.396,7.113,17.211,12.322,17.211,19.619
			c0,18.238-22.093,26.777-37.777,27.016v19.897c12.979-0.416,27.423-4.417,37.43-11.073c13.084-8.703,20.286-21.433,20.286-35.84
			C534.704,521.115,519.743,510.876,508.817,503.398z"/>
	</g>
</g>
<g>
	<g>
		<path fill="#35459B" d="M118.707,369.981c-6.485-5.482-12.134-12.021-16.791-19.433c-4.82-7.668-8.348-15.926-10.486-24.543
			c-4.526-18.244-2.099-35.811,6.661-48.198c3.284-4.643,7.335-8.378,12.042-11.105c4.88-2.83,10.381-4.515,16.348-5.007
			c0.103-0.007,0.204-0.015,0.308-0.025c1.122-0.083,2.251-0.125,3.383-0.125c-2.709-0.271-5.396-0.308-8.049-0.108
			c-0.105,0.01-0.205,0.015-0.309,0.027c-5.966,0.49-11.466,2.173-16.348,5.002c-4.708,2.727-8.758,6.464-12.04,11.11
			c-8.762,12.385-11.189,29.952-6.661,48.196c2.137,8.617,5.666,16.878,10.485,24.543c4.657,7.411,10.307,13.949,16.792,19.43
			c6.406,5.416,13.285,9.511,20.446,12.173c6.048,2.249,12.072,3.381,17.952,3.381c-4.382-0.438-8.828-1.488-13.287-3.147
			C131.992,379.492,125.115,375.397,118.707,369.981z"/>
		<path fill="#35459B" d="M342.609,397.28c1.331,5.554,5.952,10.312,10.32,10.628c4.365,0.312,6.826-3.938,5.492-9.493
			c-1.334-5.555-5.955-10.311-10.323-10.626c-1.179-0.084-2.217,0.165-3.08,0.68c0.047-2.483,1.252-5.569,3.42-6.834
			c3.452-2.018,8.989-1.142,13.557,3.125c3.243,3.037,5.563,7.276,6.53,11.947c1.033,4.987,0.354,9.752-1.865,13.071
			c-0.34,0.507-0.714,0.975-1.114,1.39c1.245-0.651,2.322-1.599,3.196-2.822c2.357-3.307,2.958-8.149,1.648-13.297
			c-1.226-4.812-3.939-9.243-7.643-12.472c-5.432-4.744-11.735-5.115-15.464-2.808c-3.974,2.461-4.707,6.839-4.155,10.722
			C342.206,392.201,341.962,394.588,342.609,397.28z"/>
		<path fill="#35459B" d="M363.729,395.506c-1.331-5.556-5.952-10.312-10.32-10.625c-2.155-0.157-3.849,0.802-4.848,2.48
			c0.741-0.325,1.59-0.478,2.535-0.414c4.192,0.291,8.664,4.826,9.884,9.841c0.96,3.944-0.243,7.158-2.761,8.206
			c0.008,0,0.013,0,0.02,0C362.605,405.31,365.063,401.06,363.729,395.506z"/>
	</g>
	<path fill="#35459B" d="M560.084,381.507c-3.02-3.831-4.926-6.334-9.476-12.847c0.457-0.113,1.265,0.13,2.066,0.369
		c0.649-0.638,1.265-1.31,1.841-2.009c-0.367-0.928-0.743-1.867-0.458-2.259c0.286-0.394,1.295-0.324,2.291-0.261
		c0.487-0.765,0.933-1.555,1.339-2.369c-0.568-0.822-1.149-1.651-0.96-2.1c0.188-0.447,1.187-0.61,2.173-0.774
		c0.298-0.852,0.552-1.723,0.763-2.611c-0.743-0.672-1.496-1.346-1.412-1.828c0.081-0.48,1.017-0.859,1.939-1.243
		c0.098-0.896,0.152-1.804,0.157-2.722c-0.871-0.491-1.757-0.981-1.781-1.474c-0.025-0.479,0.805-1.053,1.621-1.629
		c-0.049-0.453-0.108-0.91-0.18-1.365c-0.078-0.478-0.165-0.955-0.266-1.423c-0.96-0.314-1.934-0.627-2.069-1.117
		c-0.136-0.497,0.546-1.26,1.213-2.018c-0.305-0.915-0.654-1.812-1.048-2.683c-1.007-0.105-2.023-0.204-2.26-0.654
		c-0.233-0.455,0.271-1.344,0.769-2.227c-0.487-0.829-1.019-1.634-1.585-2.417c-1.007,0.104-2.022,0.212-2.343-0.185
		c-0.322-0.396-0.002-1.365,0.308-2.327c-0.643-0.719-1.324-1.408-2.032-2.064c-0.968,0.298-1.944,0.598-2.335,0.271
		c-0.392-0.327-0.264-1.339-0.144-2.343c-0.77-0.583-1.569-1.13-2.392-1.644c-0.896,0.478-1.794,0.96-2.241,0.711
		c-0.445-0.249-0.512-1.268-0.583-2.278c-0.867-0.424-1.753-0.812-2.658-1.157c-0.787,0.636-1.58,1.28-2.066,1.125
		c-0.485-0.157-0.743-1.146-1.007-2.124c-0.928-0.251-1.873-0.457-2.827-0.622c-0.647,0.775-1.3,1.558-1.812,1.498
		c-0.504-0.059-0.949-0.977-1.4-1.884c-0.957-0.064-1.921-0.082-2.891-0.054c-0.482,0.891-0.968,1.791-1.479,1.836
		c-0.492,0.039-1.095-0.775-1.69-1.575c-0.92,0.123-1.82,0.288-2.701,0.492c-0.276,0.962-0.542,1.934-1.005,2.067
		c-0.475,0.138-1.225-0.539-1.973-1.201c-0.419,0.147-0.83,0.303-1.235,0.468c-4.188-5.852-4.686-6.782-7.229-10.84l2.886-1.435
		l0.968,3.915c0.246,0.997,1.176,1.641,2.165,1.56c0.104-0.007,0.207-0.024,0.312-0.052c1.1-0.261,1.781-1.363,1.525-2.465
		l-2.889-12.456c-0.259-1.107-1.363-1.796-2.471-1.541c-1.104,0.258-1.796,1.363-1.538,2.47l1.024,4.422l-4.587,2.276
		c-5.052-3.92-12.422,1.998-7.85,8.11c2.562,3.42,3.664,4.806,8.002,11.287l-14.627,7.205c-0.149-1.242-0.334-2.495-0.559-3.752
		c-6.144-34.414-38.256-60.261-71.03-56.07c-29.347,3.748-47.135,30.104-43.503,59.815c-1.334-0.714-2.682-1.384-4.045-2.009
		c0.797-7.281-1.287-13.174-13.17-18.051c0.266-1.26,0.62-3.012,1.103-5.485c0.467-2.382,1.04-5.342,1.715-8.846
		c1.07,0.376,2.185,0.886,3.157,1.58c2.057,1.472,3.063,3.376,2.894,5.761c-0.312,4.377-0.445,6.167-0.521,7.151
		c-0.097,1.316,1.88,1.481,2.276,0.556c0.034-0.084,3.519-8.219,4.936-11.389c1.125-2.517,0.834-6.548,0.598-9.789
		c-0.088-1.235-0.167-2.303-0.143-3.017c0.04-1.085,1.3-2.852,2.934-4.117c1.174-0.906,2.367-1.393,3.036-1.243
		c0.554,0.121,1.105-0.224,1.229-0.78c0.125-0.554-0.225-1.105-0.778-1.23c-1.781-0.398-3.737,0.849-4.744,1.625
		c-1.809,1.397-3.664,3.691-3.73,5.672c-0.052,1.489,0.126,7.19-1.543,7.493c-1.218,0.219-2.824-0.379-4.404-1.223
		c-0.965-0.514-1.966-0.981-2.931-1.38c0.884-4.075,4.722-22.683,4.722-22.683c0.461-2.461-1.156-4.826-3.614-5.286
		c-2.458-0.465-4.825,1.156-5.286,3.61c-2.905,15.473-3.723,19.127-4.353,21.684c-0.443,1.351-0.212,2.805,0.554,3.935
		c-1.816,9.449-3.337,17.196-3.642,18.377c-0.495,1.447,0.149,3.071,1.558,3.762c0.271,0.135,0.551,0.224,0.836,0.275
		c6.391,2.348,9.967,4.893,10.916,7.769c0.261,0.79,0.359,1.742,0.342,2.812c-9.142-3.235-18.79-4.525-28.374-3.413
		c-8.952,1.041-16.915,4.065-23.643,8.628c-2.027-0.638-3.748-1.352-5.224-2.121c0.101-0.158,0.191-0.32,0.266-0.5
		c0.202-0.482,0.423-1.545,1.41-8.923c0.322-2.401,0.714-5.394,1.172-8.935c1.092,0.312,2.236,0.753,3.247,1.386
		c2.141,1.346,3.264,3.182,3.241,5.576c-0.048,4.39-0.073,6.181-0.086,7.17c-0.017,1.319,1.963,1.363,2.303,0.414
		c0.032-0.084,3.012-8.414,4.234-11.667c0.973-2.581,0.436-6.587,0.005-9.806c-0.164-1.23-0.308-2.291-0.324-3.002
		c-0.027-1.085,1.122-2.928,2.675-4.284c1.117-0.979,2.278-1.538,2.955-1.43c0.562,0.088,1.09-0.293,1.179-0.854
		c0.094-0.559-0.29-1.087-0.852-1.179c-1.804-0.29-3.679,1.071-4.636,1.91c-1.72,1.503-3.431,3.91-3.379,5.886
		c0.037,1.491,0.562,7.173-1.085,7.574c-1.201,0.293-2.842-0.204-4.471-0.952c-0.993-0.458-2.02-0.861-3.009-1.201
		c0.635-4.122,3.335-22.929,3.335-22.929c0.312-2.483-1.448-4.747-3.928-5.057c-2.482-0.312-4.747,1.447-5.057,3.927
		c-1.961,15.621-2.554,19.317-3.029,21.908c-0.358,1.378-0.037,2.812,0.794,3.896c-0.999,7.68-1.873,14.25-2.295,17.142
		c-1.336-1.381-2.356-2.84-3.288-4.321c-9.262-14.737-12.568-17.252-40.81-36.605c-29.175-19.991-27.571-26.222-38.634-43.899
		c-18.342,1.218-45.624,11.745-52.496,18.458c-14.867-11.169-32.369-17.328-49.528-16.029c-36.834,2.788-58.14,38.884-47.587,80.623
		c10.551,41.738,48.966,73.31,85.8,70.521c15.06-1.14,27.523-7.853,36.276-18.234l88.192,12.712l-0.052-1.151l-86.433-13.693
		c3.997-5.262,7.102-11.359,9.196-18.072l86.289,27.314c0.261,5.069,1.07,10.278,2.469,15.552
		c9.776,36.854,44.861,63.393,78.691,59.847c33.665-3.526,54.317-35.582,46.254-72.445c9.098,3.865,18.916,5.573,28.657,4.564
		c18.369-1.902,33.014-13.079,40.26-28.965l17.1-3.989c0.322,0.505,0.657,1.002,1.009,1.481c1.007-0.101,2.022-0.212,2.346,0.185
		c0.319,0.398,0,1.368-0.311,2.328c0.645,0.721,1.324,1.412,2.032,2.066c0.968-0.295,1.944-0.601,2.336-0.272
		c0.391,0.327,0.263,1.341,0.143,2.347c0.772,0.581,1.569,1.127,2.394,1.642c0.894-0.473,1.792-0.96,2.24-0.711
		c0.447,0.248,0.512,1.268,0.583,2.276c0.866,0.426,1.752,0.812,2.657,1.159c0.787-0.633,1.58-1.282,2.067-1.123
		c0.413,0.136,0.755,1.455,1.009,2.449l-42.9,9.66l0.436,1.073l59.466-11.226c4.102,5.489,5.426,7.594,7.923,11.297l-3.312,1.88
		l-1.059-3.814c-0.303-1.092-1.427-1.734-2.52-1.439c-1.093,0.296-1.742,1.418-1.454,2.511l3.246,12.367
		c0.256,0.984,1.178,1.609,2.155,1.53c0.118-0.01,0.236-0.029,0.354-0.059c1.1-0.291,1.757-1.415,1.471-2.516l-1.163-4.429
		l4.769-2.709c2.236,2.005,5.029,1.773,6.969,0.324C561.805,388.689,562.896,385.07,560.084,381.507z M371.948,346.611
		c7.006,3.942,14.287,10.532,19.853,18.539c-4.795,3.494-10.342,7.527-15.392,11.068l-9.692-2.775l-0.64-3.083L371.948,346.611z
		 M362.133,416.062c-9.519,0.554-19.588-8.233-22.486-19.631c-2.903-11.398,2.458-21.089,11.977-21.643
		c9.516-0.554,19.582,8.233,22.483,19.629C377.01,405.816,371.648,415.507,362.133,416.062z M278.555,319.953
		c-3.647,1.725-12.55,6.789-19.678,10.396c-1.42-1.001-2.793-1.857-4.045-2.539c-1.765-0.96-3.436-1.87-5.025-2.734
		c6.77-3.74,17.099-8.895,24.039-10.138C275.388,316.532,276.954,318.225,278.555,319.953z M264,305.488
		c1.594,1.523,3.231,3.086,4.915,4.658c-3.45,1.626-14.755,7.806-23.727,12.414c-3.214-1.752-6.045-3.302-8.595-4.707
		C243.626,313.387,255.729,307.093,264,305.488z M259.089,300.855c-4.458,2.104-17.701,9.228-27.318,14.314
		c-2.899-1.634-5.427-3.096-7.809-4.528c6.868-4.973,20.63-12.363,30.051-14.223C255.67,297.764,257.358,299.26,259.089,300.855z
		 M242.67,287.523c2.276,2.084,4.562,4.252,5.458,4.766c-5.588,2.643-19.642,10.202-29.067,15.315
		c-2.486-1.587-4.988-3.253-7.786-5.182C218.641,297.491,232.581,289.484,242.67,287.523z M194.157,318.808
		c0.362,1.324,0.685,2.643,0.976,3.955c-11.791-0.633-25.378-1.334-38.265-2.016c1.71-2.564,1.806-5.367,0.883-6.767l34.932-0.015
		C193.22,315.562,193.712,317.177,194.157,318.808z M156.473,388.395c-30.654,2.313-63.485-25.094-73.325-61.213
		c-9.842-36.118,7.03-67.271,37.686-69.583c27.201-2.052,56.11,19.294,69.157,49.362c-13.304,0.219-26.918,0.495-38.88,0.495
		c-0.902,0.984-1.849,2.136-2.803,3.386l-7.653,3.44c0.018-0.32,0.053-0.667,0.064-0.977c-0.384-0.266-0.776-0.512-1.174-0.746
		c-0.701,0.362-1.533,0.967-1.917,0.775c-0.394-0.192-0.43-1.228-0.571-2.003c-0.427-0.172-0.856-0.325-1.291-0.462
		c-0.598,0.517-1.271,1.307-1.691,1.215c-0.431-0.091-0.731-1.1-1.071-1.816c-0.44-0.052-0.882-0.088-1.324-0.101
		c-0.436,0.66-0.869,1.627-1.305,1.666c-0.407,0.032-0.958-0.876-1.452-1.466c-0.38,0.066-0.751,0.152-1.116,0.251
		c-0.18,0.75-0.253,1.821-0.618,1.968c-0.377,0.158-1.203-0.561-1.863-0.959c-0.325,0.177-0.637,0.372-0.94,0.573
		c0.066,0.772,0.353,1.838,0.049,2.104c-0.305,0.271-1.336-0.153-2.092-0.317c-0.244,0.268-0.475,0.551-0.694,0.844
		c0.305,0.711,0.92,1.644,0.71,2c-0.207,0.345-1.318,0.244-2.09,0.318c-0.153,0.332-0.295,0.674-0.423,1.019
		c0.495,0.601,1.344,1.324,1.235,1.723c-0.104,0.389-1.191,0.578-1.922,0.846c-0.064,0.37-0.118,0.738-0.158,1.118
		c0.625,0.46,1.609,0.954,1.595,1.37c-0.011,0.396-1.011,0.814-1.667,1.235c0.019,0.382,0.045,0.766,0.087,1.156
		c0.708,0.315,1.752,0.601,1.82,1.004c0.065,0.387-0.818,0.984-1.382,1.517c0.037,0.164,0.079,0.327,0.122,0.496
		c0.065,0.244,0.134,0.485,0.208,0.727c0.765,0.227,1.835,0.356,1.988,0.77c0.153,0.419-0.57,1.199-1.01,1.863
		c0.184,0.413,0.38,0.822,0.587,1.221c0.431,0.042,0.94,0.042,1.349,0.094l-2.797,2.052c0.469-0.802-4.788,3.384-0.679,6.899
		c2.24,1.915,4.889,4.25,6.52,5.924c3.26,3.354,1.139,9.643,0.308,12.173c-0.177-0.01-0.354-0.008-0.529,0.007
		c-2.498,0.21-3.917,2.688-3.167,5.532c0.679,2.581,2.906,4.579,5.18,4.771l53.41,7.699
		C174.425,384.073,166.133,387.666,156.473,388.395z M183.308,376.118l-51.867-8.217c0.22-0.826,0.224-1.771-0.038-2.766
		c-0.326-1.24-1.007-2.343-1.881-3.177c6.341-7.025,10.937-12.822,4.666-18.693c0.391-0.364,0.765-0.67,1.037-0.613
		c0.432,0.096,0.729,1.103,1.069,1.813c0.44,0.057,0.883,0.089,1.325,0.104c0.434-0.657,0.868-1.624,1.304-1.663
		c0.407-0.035,0.958,0.876,1.453,1.466c0.38-0.068,0.753-0.154,1.115-0.256c0.181-0.748,0.253-1.815,0.619-1.968
		c0.378-0.155,1.203,0.563,1.863,0.964c0.324-0.177,0.637-0.371,0.94-0.575c-0.053-0.625-0.252-1.444-0.164-1.875l49.792,15.766
		C192.265,364.137,188.438,370.853,183.308,376.118z M196.323,348.206l-46.791-14.011c0.21-0.062,0.421-0.126,0.608-0.192
		c0.064-0.369,0.116-0.74,0.155-1.119c-0.623-0.461-1.607-0.958-1.594-1.368c0.012-0.396,1.014-0.817,1.668-1.235
		c-0.017-0.382-0.046-0.768-0.088-1.159c-0.706-0.315-1.75-0.598-1.818-1.004c-0.025-0.138,0.074-0.301,0.231-0.478l48.04,5.696
		C197.148,338.509,196.997,343.491,196.323,348.206z M195.683,280.601c-0.251-0.832-0.482-1.666-0.707-2.5
		c6.967-9.405,19.96-16.272,31.161-13.096c3.269,1.974,6.393,4.808,9.343,9.134c-3.671-5.382-14.389-7.491-20.736-5.049
		c-6.715,2.581-14.514,10.401-8.743,27.41C200.848,291.669,197.694,286.174,195.683,280.601z M207.225,318.129
		c-0.355-1.402-0.742-2.793-1.158-4.171h0.658c1.8,1.489,3.709,3.027,5.747,4.621c2.5,1.961,4.85,3.81,7.06,5.559
		c-3.044-0.191-6.819-0.41-11.123-0.651C208.072,321.712,207.679,319.925,207.225,318.129z M208.833,351.951
		c0.95-5.413,1.294-11.132,0.976-17.06l9.752,1.154c2.761,7.445,8.953,18.204,16.466,24.048L208.833,351.951z M261.696,367.857
		c-17.168-9.164-25.224-19.232-31.116-30.503l5.96,0.706c9.756,8.44,15.237,14.481,20.259,22.09
		c1.703,2.579,3.323,5.332,5.953,8.032L261.696,367.857z M262.609,333.265c5.765-2.999,14.368-7.406,20.239-8.726
		c1.717,1.797,3.485,3.578,5.32,5.286c-3.253,1.545-13.067,6.279-19.641,9.537C266.743,337.118,264.694,335.057,262.609,333.265z
		 M271.421,343.619c6.043-3.312,15.273-8.096,21.664-9.564c1.792,1.407,3.654,2.704,5.591,3.849
		c-7.639,2.283-19.117,7.581-24.74,12.153C273.471,347.842,272.587,345.679,271.421,343.619z M295.163,367.223
		c-2.077-0.387-4.121-0.849-5.974-1.326c-12.566-3.241,3.285-13.322,16.123-19.196C300.655,352.591,297.204,359.555,295.163,367.223
		z M370.863,451.34c-26.908,2.837-55.533-19.23-64.156-49.682c-8.75-30.904,6.318-58.851,33.886-62.018
		c8.645-0.992,17.437,0.576,25.686,4.151l-4.679,18.939c-0.625-0.164-1.291-0.216-1.971-0.128c-2.817,0.362-4.809,2.941-4.446,5.761
		l0.332,1.688c-0.426-0.069-0.854-0.131-1.279-0.178l-9.949-2.845c7.289-4.252,11.492-8.435,13.286-11.919
		c1.606-3.118,0.423-6.604-1.366-8.551c-0.777-0.852-1.862-1.568-3.235-2.137c2.478,1.991-0.759,5.916-8.601,11.91
		c-5.827,4.451-12.008,7.901-24.383,9.851c-0.503-1.782-0.992-3.559-1.456-5.281c0.494-0.829,1.018-1.639,1.57-2.431
		c2.812-3.999,6.286-7.257,10.326-9.681c4.19-2.513,8.918-4.08,14.046-4.655c0.091-0.008,0.177-0.018,0.268-0.027
		c0.963-0.102,1.935-0.168,2.909-0.199c-2.333-0.152-4.644-0.113-6.925,0.128c-0.088,0.01-0.175,0.017-0.266,0.029
		c-5.131,0.573-9.857,2.141-14.048,4.653c-4.041,2.424-7.515,5.682-10.325,9.681c-7.498,10.669-9.535,25.529-5.586,40.776
		c1.865,7.197,4.926,14.061,9.095,20.389c4.028,6.12,8.908,11.473,14.503,15.914c5.527,4.39,11.458,7.655,17.624,9.702
		c5.212,1.732,10.399,2.524,15.456,2.365c-3.772-0.251-7.602-1.017-11.44-2.291c-6.166-2.053-12.097-5.315-17.623-9.703
		c-5.596-4.446-10.476-9.798-14.504-15.913c-4.171-6.331-7.23-13.191-9.095-20.395c-0.45-1.737-0.822-3.472-1.117-5.197l22.87,7.158
		c5.055,12.011,16.888,20.383,27.976,19.216c12.208-1.284,18.886-13.642,14.914-27.611c-0.081-0.285-0.167-0.565-0.256-0.849
		l24.352-5.682C414.58,417.652,397.658,448.515,370.863,451.34z M338.246,376.052c-2.348,2.884-3.846,6.592-4.294,10.768
		c-6.496-1.511-8.465-3.014-11.314-11.799c2.033-0.319,4.127-0.75,6.327-1.358L338.246,376.052z M320.569,385.951l-8.02-2.456
		c0.034-2.557,0.249-5.062,0.639-7.487c1.064-0.084,2.127-0.165,3.194-0.256c0.09,0.29,0.181,0.58,0.272,0.865
		C317.899,380.555,319.045,383.569,320.569,385.951z M446.564,385.395c-7.766,0.817-15.655-0.622-23.013-3.846l5.443-1.27
		c0.083,0.024,0.165,0.052,0.246,0.078c4.532,1.394,9.075,2.011,13.549,1.841c-2.982-0.162-6.787-1.274-10.252-2.746l40.683-9.491
		C467.106,378.49,457.805,384.211,446.564,385.395z M480.108,354.134l-66.077,15.414c-0.962-0.866-1.89-1.77-2.79-2.707
		c-0.367-0.627-0.741-1.257-1.125-1.877c1.088-0.785,1.961-1.402,2.562-1.813c6.368-4.339,9.651-8.278,11.77-12.722
		c5.005,4.707,11.398,7.384,17.535,6.739c10.729-1.129,16.182-11.883,13.105-24.268c-3.444-13.88-15.015-21.31-25.746-20.18
		c-0.923,0.096-1.811,0.269-2.66,0.504c-0.994-2.178-3.413-3.433-5.837-2.872c-2.766,0.64-4.495,3.406-3.854,6.171l0.647,3.822
		c-2.522,4.429-3.196,10.35-1.405,16.639c0.311,1.09,0.682,2.15,1.112,3.185c-1.744,5.816-1.412,7.945-13.312,16.182
		c-0.716-0.889-1.449-1.768-2.199-2.626c-2.009-3.866-3.557-7.943-4.619-12.192c-3.374-13.502-1.299-27.024,5.85-37.019
		c2.711-3.79,6.046-6.915,9.909-9.277c4.027-2.461,8.546-4.041,13.428-4.681c0.084-0.012,0.167-0.022,0.251-0.032
		c0.92-0.113,1.843-0.194,2.771-0.241c-2.21-0.106-4.399-0.027-6.572,0.246c-0.084,0.01-0.167,0.02-0.254,0.032
		c-4.874,0.64-9.385,2.215-13.4,4.676c-3.854,2.362-7.176,5.485-9.875,9.277c-7.114,9.99-9.149,23.504-5.736,37
		c0.471,1.862,1.034,3.69,1.69,5.484c-1.521-1.396-3.088-2.729-4.692-3.996c-7.652-27.341,6.285-52.913,31.706-56.094
		c25.723-3.224,51.757,17.85,57.672,45.961c0.625,2.979,0.999,5.913,1.132,8.779l-35.542,17.508l0.679,0.936l34.915-15.348
		C481.103,347.992,480.748,351.132,480.108,354.134z M436.662,338.021c-1.058-4.402-4.281-8.305-7.574-9.422
		c-0.039-0.301-0.078-0.608-0.12-0.921c0.416-0.083,0.856-0.113,1.331-0.066c3.563,0.353,7.417,4.503,8.52,9.014
		c0.863,3.544-0.118,6.386-2.239,7.27c0.002,0,0.01,0,0.012,0c3.714,0.379,5.746-3.361,4.543-8.354
		c-1.201-4.993-5.185-9.346-8.896-9.723c-1.381-0.14-2.527,0.288-3.364,1.138c-0.182-1.398-0.376-2.885-0.565-4.321
		c2.926-1.472,7.429-0.5,11.218,3.271c2.791,2.782,4.813,6.624,5.694,10.814c0.94,4.48,0.426,8.721-1.417,11.634
		c-0.283,0.448-0.594,0.856-0.931,1.219c1.051-0.554,1.954-1.376,2.678-2.448c1.961-2.899,2.409-7.215,1.232-11.842
		c-1.103-4.325-3.462-8.342-6.646-11.309c-4.183-3.903-8.902-4.686-12.099-3.394c-0.165-1.233-0.312-2.36-0.436-3.283
		c0.93-0.308,1.924-0.495,2.987-0.534c8.073-0.278,16.732,7.798,19.341,18.042c2.608,10.243-1.821,18.777-9.892,19.061
		c-4.977,0.172-10.166-2.833-14.031-7.558c0.246-0.698,0.568-1.71,0.92-2.866c1.567,1.646,3.411,2.751,5.192,2.934
		C435.833,346.752,437.865,343.012,436.662,338.021z M505.577,337.49c-0.188,0.447-1.187,0.607-2.171,0.774
		c-0.3,0.852-0.553,1.723-0.763,2.613c0.741,0.67,1.494,1.344,1.41,1.831c-0.081,0.475-1.017,0.852-1.938,1.238
		c-0.099,0.896-0.153,1.803-0.158,2.724c0.871,0.489,1.757,0.979,1.782,1.472c0.01,0.17-0.092,0.354-0.259,0.541l-9.644,2.249
		c0.534-3.849,0.694-7.854,0.443-11.961l11.009-4.841c-0.236,0.414-0.46,0.834-0.672,1.26
		C505.186,336.21,505.767,337.042,505.577,337.49z M511.601,346.791l-3.693,0.861c-0.091-5.084,1.637-9.771,4.678-13.44
		c0.753,1.169,1.496,2.338,2.22,3.497C512.925,340.305,511.783,343.423,511.601,346.791z M512.891,346.488
		c0.61-2.44,1.737-4.675,3.282-6.564c1.073,1.752,2.089,3.462,3.021,5.096L512.891,346.488z M524.672,367.242
		c-0.196,1.799-1.609,1.93-2.903,1.3c-2.894-1.413-5.5-3.359-7.65-5.712c-0.74-0.81-0.908-2.212,0.997-2.67
		c1.995-0.484,4.623-1.107,6.048-1.378c2.495-0.484,3.578,1.376,3.698,2.929C524.978,363.178,524.913,364.993,524.672,367.242z
		 M529.396,355.379c0.133-0.007,0.264-0.017,0.396-0.036c2.178-0.301,3.57-2.353,3.112-4.585c-0.462-2.227-2.601-3.792-4.778-3.491
		c-2.077,0.288-3.438,2.168-3.164,4.271c-0.05-0.162-0.094-0.327-0.128-0.499c-0.576-2.776,1.176-5.335,3.909-5.712
		c2.734-0.376,5.422,1.57,5.995,4.346c0.575,2.78-1.174,5.337-3.91,5.716C530.347,355.455,529.864,355.448,529.396,355.379z
		 M526.579,333.935c0.521-0.089,1.054-0.158,1.592-0.205c2.53-0.206,5.016,0.102,7.353,0.835c-1.08,1.033-2.052,1.754-2.923,2.178
		c-0.64,0.308-1.213,0.452-1.757,0.44c-0.758-0.015-1.528-0.291-2.338-0.854C527.861,335.539,527.217,334.739,526.579,333.935z
		 M535.573,370.914c-2.018,0.241-2.766-1.423-2.66-2.623c0.13-1.484,0.283-2.786,0.46-3.923c1.585,1.949,3.201,4.001,4.811,6.078
		C537.335,370.648,536.464,370.806,535.573,370.914z M538.959,330.703c-0.384,0.482-0.753,0.938-1.114,1.366
		c-3.024-1.29-6.376-1.891-9.797-1.609c-1.274,0.103-2.5,0.329-3.671,0.659c-0.359-0.47-0.716-0.938-1.07-1.405
		c-0.866-1.139-0.317-2.306,0.77-2.566c1.138-0.271,2.318-0.46,3.534-0.561c3.548-0.293,7.032,0.209,10.254,1.353
		C539.188,328.407,539.488,330.034,538.959,330.703z M545.874,335.369c0.737-0.892,2.081-0.942,3.274,0.531
		c2.537,3.135,4.309,6.89,4.961,11.002c0.173,1.082,0.261,2.15,0.271,3.201c0.022,2.155-0.723,2.923-2.241,2.365
		c-0.62-0.227-1.213-0.448-1.776-0.67c0.12-1.412,0.073-2.871-0.165-4.355c-0.652-4.104-2.633-7.785-5.455-10.665
		C545.096,336.326,545.47,335.854,545.874,335.369z M540.957,345.647c-0.487-1.619,0.168-3.706,2.195-6.698
		c3.295,2.987,5.637,7.032,6.355,11.609c0.052,0.32,0.089,0.638,0.123,0.952C544.232,349.343,541.508,347.485,540.957,345.647z
		 M549.951,363.069c-0.559,0.701-1.166,1.368-1.818,1.993c-1.519-2.242-3.042-4.558-4.528-6.905
		c1.565,0.507,3.376,1.211,5.473,2.121C550.766,361.01,550.691,362.139,549.951,363.069z"/>
</g>
<g>
	<path fill="#FFDE14" d="M517.863,185.883c-6.433-1.322-12.953-2.579-19.378-3.74l-0.928-0.167V54.759
		c-8.669,5.482-18.418,18.313-19.546,38.262c0.064,1.425,0.097,2.753,0.097,4.055c0,0-0.018,9.518-0.047,46.623v1.316l-1.3-0.202
		c-6.404-0.989-12.965-1.932-19.503-2.798l-0.979-0.13v-0.989c-0.027-36.438-0.044-43.815-0.044-43.815
		c0-1.307,0.029-2.623,0.093-4.023c-1.139-19.973-10.881-32.813-19.543-38.298v118.454l-1.25-0.138
		c-6.341-0.691-12.859-1.344-19.383-1.929l-1.026-0.091V30.475h14.962c12.987,0,27.697,10.217,37.085,25.599
		c9.388-15.382,24.098-25.599,37.083-25.599h14.961v155.687L517.863,185.883z"/>
	<path fill="#FFDE14" d="M219.919,30.475h10.976c8.172,0,25.65,8.893,39.475,32.454V30.46h21.662v136.82l-1.1,0.029
		c-6.56,0.172-13.081,0.404-19.383,0.682l-1.179,0.052v-3.863c0-49.852-10.795-77.675-19.853-92.237
		c-2.753-4.429-5.75-8.297-8.937-11.541v109.341l-1.046,0.077c-6.391,0.47-12.911,1.016-19.381,1.617l-1.234,0.115V30.475z"/>
	<path fill="#FFDE14" d="M603.056,209.039c-6.29-2.205-12.806-4.355-19.366-6.391l-0.792-0.246v-69.276l-25.771-4.306v66.228
		l-1.415-0.369c-6.216-1.622-12.732-3.224-19.371-4.762l-0.874-0.202V82.794c0-38.126,27.802-52.334,45.324-52.334h23.766v179.105
		L603.056,209.039z M582.897,111.171V52.119h-2.094c-0.466,0.017-23.677,1.073-23.677,30.675v24.073L582.897,111.171z"/>
	<path fill="#FFDE14" d="M36.809,186.843l0.977-0.133c2.51-0.339,4.918-0.669,7.187-0.987c26.75-3.701,38.724-19.459,38.724-33.436
		c0-16.037-13.798-32.023-24.885-44.871c-4.903-5.682-9.533-11.046-12.367-15.692c-4.567-7.48-6.725-14.673-6.417-21.381
		C41.167,45.593,63.218,29.94,97.572,29.5l1.142-0.015v21.649l-1.105,0.022c-8.221,0.175-35.112,2.144-35.944,20.186
		c-0.102,2.209,1.088,5.527,3.267,9.097c1.908,3.127,5.974,7.837,10.276,12.825c13.432,15.559,30.149,34.93,30.149,59.022
		c0,12.847-5.369,25.37-15.113,35.257c-10.292,10.441-24.921,17.232-42.305,19.637c-3.054,0.423-6.368,0.876-9.852,1.346
		l-1.279,0.175V186.843z"/>
	<path fill="#FFDE14" d="M158.312,177.007c-27.172,0-49.278-33.434-49.278-74.53s22.106-74.532,49.278-74.532
		c27.171,0,49.277,33.436,49.277,74.532S185.483,177.007,158.312,177.007z M158.312,49.606c-13.037,0-27.618,22.609-27.618,52.871
		c0,30.259,14.581,52.871,27.618,52.871s27.618-22.611,27.618-52.871C185.93,72.216,171.349,49.606,158.312,49.606z"/>
	<path fill="#FFDE14" d="M353.85,168.346c-26.45,0-47.97-31.411-47.97-70.022c0-38.608,21.52-70.02,47.97-70.02
		c26.453,0,47.975,31.411,47.975,70.02C401.824,136.935,380.303,168.346,353.85,168.346z M353.85,49.966
		c-7.429,0-13.303,7.013-16.143,11.191c-6.461,9.501-10.167,23.049-10.167,37.167s3.706,27.666,10.167,37.171
		c2.84,4.181,8.717,11.189,16.143,11.189c7.429,0,13.306-7.008,16.145-11.189c6.465-9.505,10.168-23.052,10.168-37.171
		c0-14.117-3.703-27.666-10.168-37.167C367.155,56.979,361.281,49.966,353.85,49.966z"/>
</g>
</svg>
