<?xml version="1.0" encoding="utf-8"?>
<!-- Generator: Adobe Illustrator 16.0.0, SVG Export Plug-In . SVG Version: 6.00 Build 0)  -->
<!DOCTYPE svg PUBLIC "-//W3C//DTD SVG 1.1//EN" "http://www.w3.org/Graphics/SVG/1.1/DTD/svg11.dtd">
<svg version="1.1" id="Layer_1" xmlns="http://www.w3.org/2000/svg" xmlns:xlink="http://www.w3.org/1999/xlink" x="0px" y="0px"
	 width="640px" height="640px" viewBox="0 0 640 640" enable-background="new 0 0 640 640" xml:space="preserve">
<g>
	<polygon fill="#2E3191" points="596.449,606.499 324.172,606.499 51.896,606.499 87.497,523.346 51.896,440.192 324.172,440.192 
		596.449,440.192 561.374,523.346 	"/>
	<path fill="#2E3191" d="M610.973,366.543c7.025-13.588,6.826-33.605-2.037-50.638c-10.818-20.797-34.534-26.968-43.056-27.097
		l-1.272-5.486c-2.381-10.282-11.413-17.463-21.964-17.463c-1.713,0-3.426,0.197-5.136,0.592c-5.948,1.392-10.799,5.04-13.855,9.825
		c-0.737,0.257-1.462,0.544-2.172,0.862c-4.146-5.578-8.888-10.745-14.163-15.388c-17.072-15.03-38.235-23.308-59.59-23.308
		c-3.481,0-6.995,0.224-10.436,0.664c-11.728,1.496-22.595,5.477-32.04,11.605c-1-0.44-2.045-0.806-3.128-1.093
		c-2.533-8.967-9.937-16.208-19.687-18.039c-1.546-0.291-3.125-0.44-4.695-0.44c-12.168,0-22.63,8.682-24.878,20.646
		c-1.314,6.998-2.231,11.757-2.899,15.102c-1.939-1.111-4.082-1.933-6.382-2.401c-0.896-2.575-2.216-5.015-3.938-7.231
		c-4.152-5.339-10.133-8.745-16.836-9.585c-1.047-0.13-2.111-0.199-3.165-0.199c-12.733,0-23.532,9.531-25.117,22.169
		c-0.174,1.377-0.337,2.669-0.489,3.882c-5.838-4.323-13.087-9.322-22.534-15.797c-21.674-14.851-24.618-20.227-30.485-30.94
		c-1.944-3.545-4.145-7.565-7.136-12.346l-2.543-4.061l1.135-0.106c6.096-0.565,12.158-1.07,18.023-1.501l14.484-1.069l14.379-0.634
		c5.919-0.261,11.993-0.475,18.055-0.634l20.748-0.55v-14.419c10.754,10.07,23.994,15.96,38.476,15.96
		c14.246,0,27.293-5.7,37.955-15.477v16.305l19.406,1.752c6,0.538,12.062,1.143,18.01,1.792l23.638,2.595v-31.685
		c4.917,0.673,9.826,1.388,14.651,2.134l2.585,0.397v31.823l17.527,3.146c5.909,1.066,11.943,2.231,17.919,3.459l8.563,1.762
		l8.504,1.963c6.11,1.413,12.113,2.889,17.846,4.386l13.092,3.421l12.6,3.897c5.998,1.861,11.954,3.826,17.694,5.838l28.364,9.947
		V35.981h-42.812c-13.236,0-27.244,5.143-38.242,13.888V35.996h-34.451c-12.16,0-24.529,5.025-35.221,13.861
		c-10.692-8.836-23.06-13.861-35.222-13.861h-34.451v13.415c-10.662-9.777-23.709-15.477-37.955-15.477
		c-14.482,0-27.722,5.888-38.476,15.96V35.981h-61.057v4.19c-5.976-2.729-11.87-4.176-17.249-4.176h-30.665v13.443
		c-10.787-10.027-23.937-15.848-38.274-15.848c-13.502,0-25.95,5.157-36.363,14.131V34.797l-21.586,0.275
		c-20.138,0.258-37.64,5.261-50.614,14.47c-14.659,10.406-23.185,25.9-24.001,43.63c-0.481,10.476,2.558,21.169,9.032,31.779
		c3.556,5.827,8.475,11.526,13.706,17.588c6.998,8.111,18.718,21.688,18.718,29.392c0,3.494-5.246,9.76-19.33,11.709
		c-2.13,0.296-4.396,0.607-6.75,0.925l-18.455,2.498v61.623l1.815-0.246c-11.742,21.2-14.632,47.923-7.821,74.863
		c6.479,25.623,21.146,49.354,41.304,66.818c20.659,17.903,45.326,27.761,69.457,27.761c2.214,0,4.448-0.083,6.634-0.251
		c17.546-1.326,33.635-8.029,46.358-19.15l85.962,12.392c6.42,21.478,19.453,41.08,36.962,55.488
		c18.64,15.338,41.051,23.785,63.103,23.785c2.993,0,6.008-0.157,8.959-0.467c22.821-2.389,42.67-13.784,55.89-32.085
		c8.801-12.183,14.084-26.842,15.593-42.441l96.446-19.729l1.752,6.669c4.773,18.269,22.854,18.851,35.387,13.386
		c10.106-4.407,21.058-13.027,23.158-29.013C617.152,379.5,615.28,372.473,610.973,366.543z"/>
</g>
<g>
	<path fill="#FFDE14" d="M512.414,203.839c-6.111-1.254-12.304-2.45-18.406-3.553l-0.88-0.157V79.3
		c-8.234,5.208-17.495,17.394-18.563,36.342c0.062,1.353,0.091,2.613,0.091,3.85c0,0.004-0.018,9.041-0.044,44.282v1.248
		l-1.233-0.19c-6.084-0.94-12.315-1.834-18.524-2.659l-0.932-0.123v-0.939c-0.024-34.608-0.041-41.616-0.041-41.616
		c0-1.241,0.026-2.489,0.088-3.82c-1.081-18.97-10.335-31.167-18.559-36.374v112.503l-1.189-0.13
		c-6.022-0.658-12.217-1.277-18.408-1.833l-0.976-0.088V56.238h14.21c12.334,0,26.306,9.701,35.222,24.311
		c8.915-14.61,22.889-24.311,35.221-24.311h14.209v147.866L512.414,203.839z"/>
	<path fill="#FFDE14" d="M229.434,56.238h10.426c7.762,0,24.362,8.445,37.49,30.823V56.223h20.573v129.949l-1.042,0.027
		c-6.231,0.165-12.426,0.383-18.411,0.646l-1.121,0.05v-3.669c0-47.349-10.251-73.775-18.856-87.606
		c-2.614-4.204-5.462-7.88-8.487-10.96v103.849l-0.993,0.074c-6.071,0.447-12.263,0.965-18.409,1.536l-1.172,0.108V56.238z"/>
	<path fill="#FFDE14" d="M593.328,225.832c-5.976-2.095-12.162-4.136-18.394-6.069l-0.754-0.233v-65.799l-24.476-4.089v62.902
		l-1.342-0.351c-5.904-1.542-12.094-3.064-18.401-4.522l-0.828-0.193V105.927c0-36.212,26.404-49.704,43.049-49.704h22.571v170.109
		L593.328,225.832z M574.181,132.88V76.794h-1.988c-0.442,0.015-22.487,1.017-22.487,29.133v22.866L574.181,132.88z"/>
	<path fill="#FFDE14" d="M55.52,204.75l0.927-0.125c2.383-0.324,4.673-0.637,6.826-0.937c25.409-3.516,36.78-18.483,36.78-31.758
		c0-15.23-13.106-30.417-23.635-42.617c-4.659-5.397-9.057-10.491-11.748-14.904c-4.337-7.106-6.386-13.938-6.096-20.307
		c1.086-23.509,22.028-38.374,54.656-38.792l1.086-0.015v20.561l-1.047,0.022c-7.811,0.165-33.353,2.035-34.142,19.17
		c-0.098,2.101,1.035,5.25,3.104,8.642c1.811,2.971,5.671,7.443,9.76,12.18c12.757,14.78,28.635,33.175,28.635,56.059
		c0,12.202-5.098,24.094-14.354,33.485c-9.774,9.917-23.669,16.367-40.179,18.651c-2.902,0.401-6.049,0.832-9.357,1.279
		l-1.216,0.166V204.75z"/>
	<path fill="#FFDE14" d="M170.92,195.411c-25.807,0-46.803-31.755-46.803-70.789s20.996-70.789,46.803-70.789
		c25.807,0,46.803,31.755,46.803,70.789S196.727,195.411,170.92,195.411z M170.92,74.407c-12.384,0-26.232,21.474-26.232,50.215
		s13.848,50.216,26.232,50.216c12.381,0,26.232-21.475,26.232-50.216S183.302,74.407,170.92,74.407z"/>
	<path fill="#FFDE14" d="M356.641,187.182c-25.124,0-45.565-29.832-45.565-66.504c0-36.67,20.441-66.504,45.565-66.504
		c25.121,0,45.562,29.834,45.562,66.504C402.202,157.35,381.762,187.182,356.641,187.182z M356.641,74.747
		c-7.057,0-12.637,6.661-15.335,10.629c-6.138,9.025-9.656,21.893-9.656,35.301c0,13.409,3.519,26.276,9.656,35.304
		c2.698,3.971,8.278,10.627,15.335,10.627c7.052,0,12.634-6.656,15.332-10.627c6.138-9.027,9.656-21.895,9.656-35.304
		c0-13.408-3.519-26.277-9.656-35.301C369.274,81.408,363.694,74.747,356.641,74.747z"/>
</g>
<g>
	<path fill="#FFDE14" d="M254.469,508.279c0-19.2-10.964-45.433-49.641-45.433h-16.18v121.369h19.293v-23.33
		c1.737-0.366,3.462-0.786,5.162-1.28l16.104,24.61h22.942l-21.406-32.604C244.719,542.486,254.469,527.788,254.469,508.279z
		 M207.941,540.946v-58.725c22.446,1.191,27.232,14.732,27.232,26.058C235.173,515.85,232.466,533.828,207.941,540.946z"/>
	<rect x="273.917" y="462.847" fill="#FFDE14" width="19.296" height="121.369"/>
	<polygon fill="#FFDE14" points="112.402,482.138 131.904,482.138 131.904,584.216 151.197,584.216 151.197,482.138 
		170.702,482.138 170.702,462.847 112.402,462.847 	"/>
	<polygon fill="#FFDE14" points="411.37,584.216 464.689,584.216 464.689,564.92 430.663,564.92 430.663,543.76 456.598,543.76 
		456.598,524.464 430.663,524.464 430.663,482.138 464.689,482.138 464.689,462.847 411.37,462.847 	"/>
	<polygon fill="#FFDE14" points="390.037,462.847 367.621,462.847 336.367,515.66 336.367,462.847 317.071,462.847 317.071,584.216 
		336.367,584.216 336.367,553.549 347.672,534.447 372.656,584.216 394.249,584.216 359.354,514.707 	"/>
	<path fill="#FFDE14" d="M512.46,504.338c-5.614-3.846-12.604-8.246-12.604-11.774c0-10.178,18.153-11.202,31.432-10.89v-19.296
		c-27.835,0-50.725,8.194-50.725,27.49c0,15.974,11.155,23.654,21,30.392c10.062,6.887,16.654,11.927,16.654,18.986
		c0,17.651-21.376,25.915-36.557,26.144l0.293,19.293c12.851-0.194,25.946-4.116,35.928-10.755
		c12.658-8.423,19.632-20.738,19.632-34.682C537.513,521.483,523.033,511.574,512.46,504.338z"/>
</g>
<g>
	<path fill="#FFDE14" d="M594.351,378.104c-3.389-4.295-5.528-7.105-10.63-14.41c0.512-0.128,1.418,0.145,2.317,0.412
		c0.729-0.712,1.418-1.467,2.066-2.253c-0.413-1.039-0.835-2.091-0.516-2.533c0.321-0.439,1.452-0.363,2.57-0.292
		c0.548-0.858,1.046-1.745,1.501-2.656c-0.637-0.924-1.29-1.853-1.076-2.359c0.211-0.501,1.329-0.678,2.438-0.864
		c0.334-0.959,0.619-1.935,0.855-2.932c-0.831-0.752-1.676-1.509-1.585-2.052c0.093-0.535,1.14-0.961,2.177-1.391
		c0.11-1.008,0.17-2.024,0.177-3.055c-0.978-0.55-1.971-1.101-2-1.653c-0.027-0.538,0.904-1.18,1.82-1.828
		c-0.056-0.506-0.122-1.02-0.204-1.53c-0.086-0.536-0.182-1.069-0.294-1.595c-1.079-0.354-2.173-0.703-2.322-1.253
		c-0.15-0.559,0.611-1.413,1.361-2.264c-0.345-1.027-0.739-2.032-1.177-3.01c-1.131-0.118-2.271-0.229-2.533-0.734
		c-0.264-0.512,0.302-1.507,0.859-2.499c-0.548-0.929-1.143-1.833-1.776-2.708c-1.13,0.113-2.271,0.236-2.629-0.209
		c-0.361-0.444-0.003-1.53,0.347-2.611c-0.726-0.807-1.487-1.578-2.283-2.315c-1.084,0.332-2.18,0.671-2.619,0.302
		c-0.438-0.365-0.295-1.501-0.16-2.626c-0.864-0.655-1.762-1.267-2.683-1.844c-1.003,0.534-2.013,1.075-2.514,0.798
		c-0.501-0.279-0.575-1.421-0.653-2.555c-0.974-0.478-1.966-0.913-2.98-1.299c-0.885,0.711-1.774,1.435-2.32,1.261
		c-0.543-0.176-0.832-1.285-1.127-2.38c-1.042-0.282-2.102-0.517-3.175-0.701c-0.728,0.87-1.457,1.75-2.029,1.682
		c-0.565-0.065-1.066-1.095-1.573-2.113c-1.071-0.071-2.154-0.091-3.24-0.06c-0.543,0.998-1.084,2.007-1.659,2.057
		c-0.555,0.047-1.229-0.867-1.899-1.767c-1.031,0.138-2.041,0.324-3.029,0.554c-0.307,1.079-0.609,2.169-1.125,2.318
		c-0.531,0.152-1.376-0.606-2.214-1.348c-0.47,0.166-0.932,0.339-1.389,0.524c-4.695-6.565-5.256-7.606-8.108-12.158l3.238-1.609
		l1.086,4.391c0.275,1.116,1.317,1.843,2.428,1.751c0.118-0.011,0.233-0.028,0.35-0.058c1.235-0.295,2-1.531,1.715-2.764
		l-3.244-13.975c-0.287-1.245-1.527-2.018-2.769-1.73c-1.243,0.291-2.018,1.53-1.728,2.771l1.15,4.962l-5.146,2.554
		c-5.666-4.399-13.937,2.24-8.807,9.096c2.873,3.838,4.108,5.391,8.979,12.66l-16.408,8.083c-0.167-1.396-0.376-2.798-0.63-4.209
		c-6.892-38.602-42.91-67.597-79.676-62.896c-32.918,4.204-52.875,33.771-48.801,67.099c-1.494-0.801-3.008-1.553-4.538-2.253
		c0.896-8.17-1.442-14.78-14.772-20.25c0.298-1.412,0.693-3.378,1.236-6.153c0.525-2.672,1.169-5.992,1.924-9.923
		c1.201,0.421,2.454,0.993,3.543,1.774c2.305,1.649,3.438,3.784,3.246,6.46c-0.352,4.912-0.502,6.917-0.585,8.022
		c-0.108,1.478,2.108,1.661,2.553,0.622c0.039-0.094,3.946-9.218,5.536-12.774c1.263-2.825,0.936-7.347,0.673-10.981
		c-0.101-1.386-0.187-2.583-0.159-3.383c0.041-1.216,1.457-3.199,3.287-4.617c1.317-1.017,2.654-1.565,3.408-1.396
		c0.619,0.138,1.238-0.25,1.376-0.875c0.14-0.622-0.251-1.238-0.875-1.378c-1.997-0.448-4.189,0.951-5.319,1.821
		c-2.027,1.569-4.108,4.142-4.185,6.364c-0.059,1.669,0.143,8.064-1.729,8.403c-1.366,0.246-3.17-0.423-4.941-1.371
		c-1.081-0.578-2.204-1.101-3.29-1.551c0.992-4.57,5.298-25.443,5.298-25.443c0.518-2.759-1.298-5.413-4.055-5.93
		c-2.757-0.52-5.41,1.297-5.929,4.052c-3.261,17.356-4.175,21.455-4.885,24.322c-0.494,1.517-0.233,3.147,0.624,4.416
		c-2.037,10.6-3.745,19.291-4.086,20.613c-0.556,1.622,0.167,3.447,1.747,4.221c0.305,0.152,0.619,0.253,0.936,0.31
		c7.17,2.631,11.18,5.487,12.246,8.715c0.295,0.884,0.405,1.953,0.386,3.153c-10.256-3.63-21.079-5.075-31.831-3.827
		c-10.04,1.165-18.975,4.559-26.518,9.676c-2.278-0.715-4.207-1.517-5.862-2.381c0.113-0.175,0.216-0.359,0.297-0.561
		c0.226-0.541,0.477-1.732,1.583-10.008c0.361-2.694,0.804-6.049,1.314-10.022c1.226,0.349,2.511,0.843,3.644,1.554
		c2.403,1.51,3.661,3.57,3.634,6.254c-0.054,4.924-0.081,6.934-0.096,8.045c-0.017,1.478,2.204,1.528,2.585,0.464
		c0.034-0.096,3.379-9.438,4.75-13.089c1.091-2.895,0.486-7.388,0.005-10.999c-0.185-1.378-0.345-2.569-0.364-3.368
		c-0.031-1.219,1.259-3.284,3-4.806c1.254-1.098,2.556-1.725,3.315-1.603c0.629,0.102,1.224-0.328,1.324-0.957
		c0.101-0.626-0.327-1.221-0.956-1.324c-2.024-0.325-4.128,1.204-5.202,2.145c-1.929,1.686-3.85,4.385-3.791,6.602
		c0.044,1.671,0.632,8.044-1.219,8.494c-1.344,0.331-3.185-0.229-5.013-1.067c-1.112-0.512-2.268-0.966-3.375-1.348
		c0.712-4.622,3.742-25.721,3.742-25.721c0.35-2.784-1.624-5.323-4.408-5.672c-2.781-0.35-5.322,1.625-5.673,4.407
		c-2.197,17.522-2.863,21.669-3.396,24.574c-0.403,1.547-0.042,3.155,0.89,4.37c-1.118,8.616-2.099,15.984-2.575,19.23
		c-1.496-1.549-2.641-3.185-3.686-4.848c-10.391-16.531-14.099-19.352-45.778-41.063c-32.729-22.425-30.928-29.414-43.338-49.244
		c-20.576,1.368-51.179,13.174-58.887,20.705c-16.679-12.529-36.311-19.438-55.558-17.98c-41.321,3.128-65.221,43.62-53.383,90.438
		c11.836,46.822,54.929,82.236,96.247,79.108c16.893-1.277,30.874-8.806,40.692-20.452l98.928,14.258l-0.057-1.292l-96.955-15.359
		c4.481-5.904,7.966-12.742,10.315-20.273l96.792,30.643c0.295,5.686,1.202,11.528,2.77,17.442
		c10.968,41.341,50.326,71.111,88.273,67.134c37.766-3.954,60.932-39.913,51.887-81.267c10.205,4.337,21.218,6.253,32.145,5.12
		c20.607-2.132,37.033-14.671,45.164-32.49l19.18-4.474c0.363,0.562,0.737,1.122,1.13,1.66c1.131-0.115,2.271-0.238,2.632,0.209
		c0.359,0.445,0,1.533-0.347,2.609c0.723,0.807,1.484,1.583,2.28,2.32c1.086-0.335,2.18-0.674,2.619-0.308
		c0.44,0.366,0.295,1.506,0.162,2.632c0.863,0.653,1.76,1.268,2.684,1.84c1.003-0.528,2.01-1.073,2.512-0.793
		c0.501,0.274,0.574,1.42,0.653,2.553c0.973,0.477,1.968,0.909,2.98,1.297c0.885-0.71,1.773-1.438,2.321-1.258
		c0.463,0.15,0.846,1.634,1.131,2.747l-48.123,10.839l0.487,1.203l66.708-12.595c4.602,6.157,6.086,8.519,8.887,12.674l-3.715,2.108
		l-1.187-4.278c-0.342-1.226-1.603-1.946-2.828-1.614c-1.224,0.332-1.954,1.588-1.632,2.816l3.642,13.872
		c0.287,1.104,1.324,1.807,2.418,1.716c0.132-0.01,0.268-0.03,0.4-0.064c1.233-0.326,1.971-1.587,1.646-2.823l-1.303-4.971
		l5.349-3.037c2.51,2.251,5.643,1.99,7.816,0.366C596.277,386.161,597.503,382.102,594.351,378.104z M383.305,338.96
		c7.863,4.423,16.03,11.813,22.274,20.797c-5.382,3.921-11.603,8.445-17.269,12.416l-10.873-3.113l-0.718-3.46L383.305,338.96z
		 M372.295,416.867c-10.677,0.622-21.969-9.238-25.223-22.023c-3.256-12.781,2.757-23.651,13.434-24.275
		c10.676-0.619,21.969,9.236,25.225,22.021C388.985,405.375,382.971,416.24,372.295,416.867z M278.544,309.054
		c-4.094,1.937-14.079,7.618-22.075,11.664c-1.595-1.125-3.135-2.086-4.541-2.85c-1.978-1.076-3.853-2.097-5.634-3.064
		c7.592-4.196,19.18-9.978,26.964-11.371C274.991,305.219,276.745,307.119,278.544,309.054z M262.216,292.83
		c1.786,1.708,3.622,3.462,5.511,5.226c-3.87,1.822-16.551,8.755-26.615,13.924c-3.602-1.963-6.782-3.703-9.642-5.28
		C239.36,301.69,252.938,294.629,262.216,292.83z M256.708,287.633c-5,2.359-19.858,10.351-30.645,16.057
		c-3.25-1.833-6.089-3.474-8.76-5.079c7.701-5.58,23.141-13.868,33.712-15.957C252.872,284.165,254.764,285.843,256.708,287.633z
		 M238.289,272.677c2.553,2.337,5.118,4.771,6.121,5.344c-6.266,2.968-22.03,11.446-32.606,17.185
		c-2.789-1.781-5.592-3.654-8.732-5.816C211.334,283.859,226.972,274.878,238.289,272.677z M183.872,307.771
		c0.403,1.487,0.767,2.965,1.091,4.436c-13.224-0.708-28.468-1.497-42.923-2.261c1.919-2.877,2.027-6.019,0.99-7.591l39.186-0.016
		C182.82,304.13,183.37,305.941,183.872,307.771z M141.597,385.831c-34.387,2.593-71.214-28.15-82.251-68.664
		c-11.042-40.518,7.885-75.462,42.272-78.06c30.512-2.302,62.941,21.646,77.576,55.375c-14.922,0.245-30.195,0.554-43.611,0.554
		c-1.015,1.103-2.076,2.396-3.145,3.798l-8.587,3.858c0.022-0.359,0.061-0.747,0.076-1.096c-0.435-0.297-0.873-0.574-1.32-0.835
		c-0.786,0.405-1.72,1.083-2.15,0.87c-0.44-0.216-0.479-1.377-0.639-2.248c-0.479-0.192-0.963-0.364-1.45-0.516
		c-0.671,0.577-1.425,1.462-1.897,1.36c-0.484-0.102-0.818-1.233-1.202-2.037c-0.494-0.058-0.99-0.099-1.484-0.114
		c-0.486,0.742-0.973,1.825-1.464,1.868c-0.457,0.038-1.076-0.981-1.629-1.645c-0.425,0.076-0.843,0.172-1.25,0.285
		c-0.202,0.842-0.285,2.042-0.693,2.209c-0.425,0.174-1.352-0.63-2.088-1.08c-0.366,0.198-0.718,0.416-1.057,0.642
		c0.076,0.869,0.398,2.064,0.057,2.361c-0.344,0.305-1.499-0.172-2.347-0.355c-0.273,0.302-0.533,0.618-0.779,0.947
		c0.341,0.796,1.032,1.843,0.796,2.243c-0.231,0.387-1.477,0.275-2.347,0.356c-0.169,0.371-0.329,0.754-0.472,1.144
		c0.555,0.672,1.506,1.483,1.383,1.932c-0.115,0.436-1.336,0.647-2.155,0.947c-0.071,0.415-0.133,0.829-0.177,1.254
		c0.7,0.516,1.803,1.072,1.789,1.537c-0.012,0.445-1.135,0.916-1.87,1.386c0.02,0.429,0.051,0.86,0.098,1.299
		c0.793,0.355,1.966,0.673,2.042,1.126c0.071,0.435-0.919,1.103-1.553,1.7c0.044,0.185,0.091,0.368,0.14,0.556
		c0.071,0.274,0.15,0.545,0.231,0.817c0.86,0.253,2.062,0.399,2.234,0.864c0.169,0.469-0.642,1.344-1.135,2.088
		c0.206,0.462,0.427,0.922,0.658,1.368c0.484,0.047,1.052,0.047,1.514,0.106l-3.138,2.302c0.526-0.899-5.374,3.794-0.762,7.737
		c2.514,2.15,5.484,4.77,7.312,6.646c3.659,3.762,1.277,10.816,0.346,13.654c-0.199-0.01-0.398-0.007-0.595,0.01
		c-2.801,0.233-4.393,3.015-3.553,6.204c0.762,2.895,3.263,5.138,5.811,5.354l59.912,8.637
		C161.733,380.981,152.433,385.014,141.597,385.831z M171.699,372.06l-58.185-9.217c0.249-0.927,0.253-1.99-0.039-3.104
		c-0.366-1.388-1.133-2.626-2.111-3.562c7.113-7.88,12.269-14.384,5.231-20.972c0.442-0.405,0.86-0.749,1.165-0.686
		c0.484,0.105,0.821,1.236,1.202,2.035c0.494,0.063,0.99,0.098,1.484,0.112c0.489-0.734,0.976-1.82,1.464-1.864
		c0.457-0.035,1.074,0.982,1.629,1.644c0.427-0.074,0.843-0.172,1.25-0.282c0.204-0.841,0.285-2.04,0.695-2.209
		c0.423-0.175,1.349,0.631,2.088,1.081c0.364-0.199,0.715-0.416,1.054-0.646c-0.062-0.7-0.283-1.622-0.184-2.104l55.857,17.687
		C181.746,358.621,177.454,366.152,171.699,372.06z M186.299,340.748l-52.489-15.715c0.236-0.069,0.472-0.143,0.681-0.217
		c0.074-0.412,0.133-0.83,0.174-1.258c-0.698-0.514-1.801-1.071-1.789-1.533c0.015-0.444,1.138-0.916,1.872-1.386
		c-0.02-0.428-0.051-0.86-0.098-1.297c-0.793-0.355-1.966-0.673-2.04-1.128c-0.027-0.155,0.081-0.336,0.258-0.536l53.889,6.391
		C187.223,329.871,187.056,335.461,186.299,340.748z M185.579,264.914c-0.28-0.935-0.538-1.871-0.791-2.806
		c7.816-10.547,22.389-18.255,34.952-14.689c3.671,2.211,7.172,5.393,10.482,10.247c-4.118-6.038-16.141-8.404-23.259-5.665
		c-7.533,2.894-16.281,11.668-9.809,30.746C191.375,277.331,187.837,271.165,185.579,264.914z M198.528,307.01
		c-0.398-1.572-0.831-3.133-1.3-4.678h0.739c2.018,1.668,4.16,3.396,6.445,5.185c2.806,2.199,5.44,4.271,7.921,6.234
		c-3.415-0.214-7.651-0.461-12.477-0.732C199.479,311.027,199.037,309.025,198.528,307.01z M200.334,344.953
		c1.064-6.077,1.45-12.49,1.091-19.139l10.939,1.295c3.098,8.349,10.044,20.418,18.473,26.977L200.334,344.953z M259.631,362.794
		c-19.259-10.281-28.293-21.579-34.903-34.218l6.683,0.791c10.944,9.47,17.094,16.244,22.728,24.777
		c1.909,2.895,3.728,5.985,6.676,9.013L259.631,362.794z M260.656,323.988c6.467-3.365,16.116-8.309,22.704-9.786
		c1.926,2.012,3.909,4.012,5.966,5.929c-3.646,1.732-14.657,7.045-22.03,10.698C265.292,328.311,262.995,325.998,260.656,323.988z
		 M270.541,335.604c6.779-3.715,17.131-9.079,24.301-10.728c2.012,1.577,4.099,3.031,6.273,4.314
		c-8.57,2.562-21.446,8.507-27.755,13.637C272.838,340.341,271.848,337.913,270.541,335.604z M297.174,362.081
		c-2.33-0.433-4.625-0.953-6.701-1.489c-14.097-3.634,3.683-14.943,18.087-21.534C303.333,345.668,299.463,353.479,297.174,362.081z
		 M382.089,456.438c-30.184,3.185-62.292-21.573-71.966-55.729c-9.813-34.667,7.086-66.018,38.011-69.567
		c9.701-1.111,19.562,0.646,28.814,4.658l-5.251,21.244c-0.697-0.187-1.444-0.243-2.209-0.145c-3.159,0.407-5.393,3.3-4.987,6.462
		l0.371,1.895c-0.477-0.079-0.956-0.147-1.436-0.199l-11.157-3.191c8.175-4.768,12.888-9.463,14.902-13.372
		c1.804-3.494,0.474-7.408-1.531-9.593c-0.872-0.953-2.091-1.759-3.631-2.396c2.778,2.236-0.851,6.637-9.649,13.362
		c-6.533,4.995-13.468,8.862-27.348,11.049c-0.565-2-1.113-3.99-1.634-5.926c0.553-0.929,1.14-1.838,1.762-2.723
		c3.152-4.489,7.049-8.143,11.58-10.86c4.703-2.821,10.006-4.578,15.76-5.222c0.101-0.01,0.196-0.021,0.298-0.032
		c1.081-0.112,2.172-0.187,3.263-0.224c-2.614-0.174-5.209-0.125-7.767,0.143c-0.102,0.01-0.197,0.02-0.298,0.032
		c-5.754,0.646-11.057,2.403-15.76,5.222c-4.531,2.72-8.428,6.373-11.583,10.86c-8.411,11.966-10.693,28.638-6.263,45.739
		c2.091,8.076,5.523,15.774,10.202,22.873c4.516,6.865,9.992,12.867,16.269,17.851c6.199,4.924,12.851,8.585,19.77,10.885
		c5.846,1.941,11.661,2.831,17.337,2.651c-4.23-0.28-8.525-1.14-12.831-2.57c-6.919-2.3-13.572-5.963-19.772-10.882
		c-6.277-4.988-11.749-10.993-16.268-17.854c-4.679-7.102-8.111-14.797-10.202-22.876c-0.506-1.948-0.924-3.895-1.253-5.828
		l25.652,8.029c5.669,13.471,18.947,22.861,31.385,21.552c13.693-1.439,21.183-15.303,16.73-30.972
		c-0.091-0.319-0.189-0.634-0.29-0.953l27.318-6.372C431.13,418.651,412.146,453.27,382.089,456.438z M345.505,371.985
		c-2.637,3.236-4.314,7.394-4.821,12.079c-7.282-1.692-9.494-3.383-12.688-13.236c2.278-0.358,4.627-0.843,7.097-1.523
		L345.505,371.985z M325.674,383.09l-8.998-2.755c0.037-2.867,0.277-5.679,0.717-8.401c1.194-0.093,2.386-0.184,3.583-0.284
		c0.101,0.324,0.204,0.65,0.305,0.973C322.679,377.035,323.964,380.416,325.674,383.09z M467.009,382.465
		c-8.713,0.917-17.563-0.697-25.816-4.314l6.107-1.423c0.094,0.027,0.185,0.057,0.275,0.086c5.084,1.563,10.178,2.256,15.197,2.066
		c-3.344-0.182-7.612-1.43-11.499-3.081l45.639-10.646C490.052,374.721,479.618,381.139,467.009,382.465z M504.637,347.397
		l-74.123,17.293c-1.076-0.973-2.121-1.985-3.131-3.037c-0.41-0.705-0.833-1.41-1.261-2.105c1.219-0.88,2.199-1.575,2.875-2.037
		c7.143-4.865,10.826-9.283,13.2-14.271c5.614,5.28,12.786,8.285,19.669,7.561c12.037-1.266,18.153-13.327,14.705-27.223
		c-3.864-15.568-16.846-23.9-28.883-22.636c-1.037,0.109-2.032,0.302-2.983,0.566c-1.117-2.442-3.83-3.849-6.548-3.222
		c-3.104,0.718-5.042,3.818-4.324,6.924l0.728,4.285c-2.831,4.968-3.583,11.61-1.578,18.665c0.35,1.224,0.767,2.412,1.248,3.572
		c-1.955,6.523-1.582,8.912-14.932,18.153c-0.803-0.998-1.626-1.98-2.467-2.946c-2.253-4.334-3.992-8.909-5.182-13.679
		c-3.787-15.143-1.46-30.313,6.561-41.524c3.042-4.253,6.781-7.756,11.115-10.407c4.517-2.762,9.588-4.531,15.062-5.249
		c0.096-0.016,0.187-0.027,0.285-0.037c1.029-0.127,2.063-0.216,3.105-0.27c-2.477-0.121-4.937-0.032-7.371,0.272
		c-0.096,0.013-0.189,0.025-0.285,0.037c-5.47,0.72-10.528,2.485-15.035,5.248c-4.322,2.646-8.05,6.15-11.076,10.405
		c-7.979,11.205-10.261,26.367-6.433,41.504c0.528,2.088,1.159,4.14,1.894,6.15c-1.705-1.563-3.462-3.06-5.263-4.482
		c-8.583-30.672,7.052-59.353,35.569-62.922c28.854-3.616,58.057,20.021,64.69,51.556c0.703,3.344,1.12,6.634,1.271,9.848
		l-39.872,19.64l0.762,1.052l39.169-17.217C505.75,340.508,505.354,344.031,504.637,347.397z M455.902,329.323
		c-1.189-4.937-4.806-9.312-8.499-10.569c-0.042-0.335-0.088-0.68-0.133-1.031c0.465-0.094,0.959-0.126,1.492-0.074
		c3.997,0.396,8.319,5.049,9.553,10.108c0.973,3.973-0.128,7.165-2.511,8.155c0.005-0.003,0.012,0,0.017,0
		c4.162,0.425,6.445-3.771,5.094-9.372c-1.347-5.599-5.816-10.481-9.979-10.905c-1.548-0.157-2.833,0.323-3.771,1.276
		c-0.206-1.567-0.423-3.236-0.637-4.848c3.28-1.651,8.335-0.561,12.583,3.668c3.133,3.123,5.401,7.43,6.389,12.133
		c1.057,5.022,0.477,9.779-1.587,13.047c-0.319,0.501-0.669,0.961-1.045,1.368c1.178-0.621,2.192-1.543,3.003-2.746
		c2.199-3.254,2.703-8.094,1.384-13.283c-1.239-4.851-3.885-9.358-7.458-12.687c-4.69-4.376-9.988-5.256-13.573-3.805
		c-0.182-1.385-0.349-2.65-0.486-3.683c1.042-0.345,2.16-0.557,3.352-0.598c9.055-0.313,18.77,8.745,21.696,20.236
		c2.924,11.492-2.042,21.064-11.099,21.382c-5.577,0.194-11.401-3.177-15.737-8.477c0.277-0.784,0.636-1.917,1.031-3.215
		c1.76,1.846,3.826,3.084,5.826,3.288C454.969,339.117,457.249,334.923,455.902,329.323z M533.205,328.729
		c-0.211,0.501-1.329,0.681-2.435,0.869c-0.334,0.954-0.622,1.932-0.854,2.932c0.83,0.75,1.676,1.509,1.582,2.052
		c-0.091,0.533-1.141,0.958-2.175,1.391c-0.11,1.003-0.172,2.022-0.177,3.055c0.978,0.55,1.968,1.101,1.998,1.653
		c0.01,0.187-0.104,0.394-0.29,0.604l-10.819,2.523c0.603-4.319,0.779-8.812,0.497-13.418l12.352-5.428
		c-0.266,0.464-0.517,0.936-0.752,1.412C532.766,327.293,533.419,328.228,533.205,328.729z M539.963,339.161l-4.143,0.968
		c-0.104-5.702,1.838-10.963,5.246-15.076c0.845,1.31,1.68,2.621,2.491,3.921C541.447,331.886,540.167,335.382,539.963,339.161z
		 M541.41,338.824c0.686-2.739,1.948-5.245,3.683-7.366c1.202,1.966,2.342,3.885,3.389,5.716L541.41,338.824z M554.624,362.101
		c-0.219,2.02-1.804,2.167-3.256,1.46c-3.243-1.583-6.169-3.767-8.582-6.408c-0.831-0.909-1.018-2.479,1.118-2.995
		c2.24-0.543,5.187-1.241,6.783-1.546c2.802-0.54,4.016,1.543,4.15,3.288C554.968,357.543,554.896,359.58,554.624,362.101z
		 M559.927,348.796c0.147-0.008,0.295-0.018,0.442-0.04c2.444-0.339,4.008-2.641,3.494-5.143c-0.519-2.501-2.92-4.256-5.361-3.916
		c-2.33,0.321-3.858,2.428-3.549,4.791c-0.059-0.185-0.105-0.369-0.145-0.561c-0.646-3.115,1.319-5.985,4.386-6.408
		c3.069-0.422,6.079,1.76,6.723,4.875c0.646,3.118-1.317,5.988-4.384,6.413C560.993,348.882,560.452,348.872,559.927,348.796z
		 M556.767,324.738c0.585-0.099,1.18-0.175,1.786-0.227c2.833-0.233,5.625,0.111,8.246,0.934c-1.211,1.16-2.302,1.969-3.28,2.445
		c-0.717,0.347-1.36,0.509-1.97,0.494c-0.851-0.021-1.713-0.327-2.62-0.959C558.202,326.537,557.481,325.643,556.767,324.738z
		 M566.854,366.224c-2.264,0.268-3.104-1.597-2.983-2.943c0.147-1.666,0.319-3.126,0.519-4.4c1.774,2.184,3.59,4.486,5.394,6.818
		C568.831,365.924,567.854,366.101,566.854,366.224z M570.652,321.115c-0.428,0.54-0.846,1.052-1.251,1.532
		c-3.391-1.449-7.15-2.121-10.988-1.805c-1.43,0.116-2.806,0.37-4.118,0.739c-0.403-0.526-0.804-1.052-1.201-1.575
		c-0.971-1.279-0.356-2.585,0.864-2.877c1.275-0.306,2.6-0.519,3.964-0.631c3.98-0.327,7.89,0.236,11.502,1.517
		C570.91,318.54,571.244,320.364,570.652,321.115z M578.409,326.348c0.828-0.998,2.334-1.055,3.673,0.597
		c2.848,3.517,4.833,7.73,5.565,12.342c0.192,1.214,0.293,2.411,0.305,3.59c0.024,2.421-0.813,3.28-2.516,2.654
		c-0.698-0.253-1.361-0.504-1.995-0.752c0.135-1.583,0.083-3.222-0.182-4.885c-0.732-4.603-2.956-8.732-6.119-11.964
		C577.534,327.421,577.957,326.893,578.409,326.348z M572.893,337.876c-0.548-1.813,0.187-4.155,2.465-7.511
		c3.693,3.351,6.322,7.89,7.128,13.024c0.057,0.359,0.101,0.713,0.138,1.066C576.568,342.023,573.515,339.94,572.893,337.876z
		 M582.984,357.42c-0.629,0.789-1.312,1.536-2.04,2.238c-1.705-2.516-3.415-5.11-5.081-7.744c1.755,0.567,3.789,1.355,6.138,2.376
		C583.898,355.112,583.814,356.378,582.984,357.42z"/>
	<path fill="#FFDE14" d="M80.398,343.378c-5.408-8.603-9.364-17.866-11.765-27.532c-5.076-20.464-2.354-40.171,7.475-54.066
		c3.681-5.208,8.227-9.398,13.507-12.457c5.477-3.174,11.646-5.065,18.337-5.618c0.118-0.01,0.229-0.016,0.346-0.027
		c1.261-0.096,2.523-0.143,3.796-0.143c-3.042-0.302-6.054-0.344-9.03-0.121c-0.118,0.01-0.231,0.018-0.347,0.03
		c-6.693,0.551-12.863,2.44-18.34,5.612c-5.278,3.062-9.823,7.252-13.507,12.462c-9.826,13.893-12.548,33.599-7.472,54.064
		c2.398,9.666,6.356,18.935,11.765,27.534c5.224,8.31,11.561,15.646,18.836,21.795c7.185,6.073,14.9,10.666,22.932,13.653
		c6.789,2.523,13.543,3.794,20.139,3.792c-4.917-0.492-9.902-1.669-14.902-3.531c-8.033-2.985-15.748-7.578-22.935-13.649
		C91.958,359.024,85.622,351.692,80.398,343.378z"/>
	<path fill="#FFDE14" d="M372.987,379.306c-6.094-5.322-13.165-5.74-17.35-3.15c-4.457,2.76-5.277,7.671-4.661,12.027
		c-1.031,1.917-1.307,4.598-0.582,7.615c1.496,6.23,6.679,11.57,11.578,11.922c4.896,0.351,7.656-4.418,6.16-10.647
		c-1.497-6.23-6.679-11.57-11.578-11.919c-1.322-0.096-2.489,0.185-3.457,0.762c0.051-2.786,1.407-6.248,3.838-7.666
		c3.872-2.263,10.084-1.283,15.207,3.504c3.639,3.405,6.241,8.162,7.324,13.4c1.16,5.598,0.398,10.939-2.091,14.662
		c-0.384,0.572-0.801,1.093-1.251,1.562c1.396-0.732,2.607-1.796,3.585-3.167c2.645-3.708,3.319-9.143,1.851-14.917
		C380.185,387.897,377.14,382.93,372.987,379.306z"/>
	<path fill="#FFDE14" d="M362.511,381.888c-2.421-0.175-4.317,0.901-5.438,2.784c0.83-0.366,1.783-0.536,2.843-0.465
		c4.705,0.324,9.72,5.413,11.089,11.04c1.076,4.423-0.272,8.027-3.096,9.207c0.005-0.003,0.012,0,0.02,0
		c4.896,0.352,7.656-4.416,6.157-10.646C372.592,387.573,367.41,382.239,362.511,381.888z"/>
</g>
</svg>
