<?xml version="1.0" encoding="utf-8"?>
<!-- Generator: Adobe Illustrator 16.0.0, SVG Export Plug-In . SVG Version: 6.00 Build 0)  -->
<!DOCTYPE svg PUBLIC "-//W3C//DTD SVG 1.1//EN" "http://www.w3.org/Graphics/SVG/1.1/DTD/svg11.dtd">
<svg version="1.1" id="Layer_1" xmlns="http://www.w3.org/2000/svg" xmlns:xlink="http://www.w3.org/1999/xlink" x="0px" y="0px"
	 width="640px" height="640px" viewBox="0 0 640 640" enable-background="new 0 0 640 640" xml:space="preserve">
<g id="Background_Square">
	<g opacity="0.7">
		<path fill="#FFFFFF" d="M19,606c0,11.598,9.402,21,21,21h560c11.598,0,21-9.402,21-21V39c0-11.598-9.402-21-21-21H40
			c-11.598,0-21,9.402-21,21V606z"/>
	</g>
	<g>
		<path fill="none" stroke="#35459B" stroke-width="8" stroke-miterlimit="10" d="M20,606c0,11.598,9.402,21,21,21h560
			c11.598,0,21-9.402,21-21V39c0-11.598-9.402-21-21-21H41c-11.598,0-21,9.402-21,21V606z"/>
	</g>
</g>
<g>
	<path fill="#35459B" d="M255.669,440.512v38.553c-1.574-6.537-4.596-13.928-10.293-20.667
		c-12.501-14.783-30.908-17.886-44.146-17.886h-23.638h-0.584h-70.449v36.007h21.493v97.097h36.009v-97.097h12.947v97.097h36.009
		v-10.127l6.629,10.127h36.024h4.474h31.533V440.512H255.669z M213.017,509.705v-31.343c5.704,2.301,8.251,6.849,8.251,14.194
		C221.268,497.975,219.597,504.611,213.017,509.705z M237.785,535.825c9.098-7.926,15.181-17.968,17.884-29.384v56.623
		L237.785,535.825z"/>
	<path fill="#35459B" d="M498.841,481.521l-1.472-1.001c-1.146-0.776-2.793-1.896-4.259-2.974c2.537-0.734,7.111-1.516,15.08-1.516
		c1.149,0,2.274,0.016,3.366,0.041l9.032,0.211v-36.216h-8.826c-28.539,0-47.88,8.342-54.521,22.852v-22.407h-64.355h-4.019h-37.82
		l-15.868,26.814v-26.814h-36.01v133.104h36.01v-35.581l1.288-2.18l18.958,37.761h33.442h6.85l69.251,0.443
		c13.873-0.211,28.063-4.479,38.934-11.705c14.579-9.702,22.608-24.027,22.608-40.34
		C526.51,500.462,509.192,488.608,498.841,481.521z M388.867,559.971l-30.602-60.956l30.602-51.715V559.971z M464.066,537.585
		l-39.191,0.022v-8.237h24.67v-36.007h-24.67v-16.845h29.841c0.664,18.881,13.986,28.009,23.785,34.718
		c4.195,2.872,12.002,8.216,12.002,10.777C490.503,532.225,475.224,537.585,464.066,537.585z"/>
</g>
<path fill="#35459B" d="M560.104,44.656c-16.081,0-39.907,10.494-47.85,37.339V44.669h-22.599c-11.735,0-24.293,6.666-34.134,17.64
	c-9.846-10.974-22.401-17.64-34.136-17.64h-22.601v38.847c-2.325-6.576-5.365-12.687-9.083-18.109
	c-10.043-14.662-23.714-22.736-38.488-22.736c-14.777,0-28.446,8.075-38.493,22.736c-3.985,5.819-7.199,12.424-9.584,19.551V44.656
	h-37.592v13.533c-10.004-9.191-20.203-13.52-27.507-13.52h-18.932v38.634c-2.256-6.095-5.083-11.782-8.46-16.887
	c-10.263-15.527-24.264-24.078-39.42-24.078c-15.157,0-29.157,8.551-39.422,24.078c-2.508,3.793-4.711,7.909-6.608,12.271V43.646
	l-9.992,0.129c-36.197,0.462-60.406,18.523-61.674,46.014c-0.365,7.964,2.052,16.27,7.189,24.684
	c2.983,4.891,7.469,10.088,12.236,15.613c9.25,10.718,20.763,24.057,20.763,35.536c0,9.038-8.666,19.355-28.034,22.037
	c-2.077,0.288-4.284,0.589-6.582,0.901l-8.543,1.155v37.943l11.19-1.52c3.215-0.437,6.276-0.854,9.093-1.246
	c17.943-2.48,33.164-9.61,44.016-20.622c9.073-9.201,14.645-20.573,16.074-32.526c0.291,0.46,0.574,0.933,0.873,1.386
	c10.265,15.524,24.265,24.072,39.422,24.072c15.157,0,29.158-8.548,39.42-24.072c3.377-5.108,6.204-10.793,8.46-16.888v36.807
	l10.779-1.01c5.975-0.555,11.919-1.051,17.671-1.477l9.142-0.672v-76.207c4.897,14.012,8.847,34.207,8.847,62.886v12.782
	l10.301-0.456c5.798-0.253,11.751-0.462,17.688-0.621l9.604-0.253v-41.081c2.385,7.128,5.599,13.735,9.584,19.554
	c10.047,14.662,23.716,22.736,38.493,22.736c14.774,0,28.445-8.075,38.488-22.736c3.718-5.422,6.758-11.533,9.083-18.109v42.578
	l8.983,0.811c5.884,0.528,11.832,1.121,17.669,1.76l10.942,1.201v-31.117l8.856,1.3c5.954,0.788,11.932,1.646,17.771,2.55
	l11.655,1.85v31.015l8.113,1.456c5.812,1.049,11.744,2.195,17.624,3.402l9.155,1.882v0.021l7.645,1.765
	c6.016,1.393,11.934,2.847,17.59,4.324l12.358,3.229v-61.966l6.065,1.013v62.802l6.942,2.149c5.938,1.841,11.835,3.787,17.52,5.78
	l13.133,4.605V44.656H560.104z M117.193,125.383c-5.09-7.467-10.804-14.093-15.795-19.875c-3.381-3.918-7.215-8.36-8.591-10.616
	c-1.14-1.871-1.588-3.151-1.707-3.645c0.695-7.407,15.624-9.703,24.433-9.887l8.611-0.179c-4.631,11.61-7.105,24.852-7.105,38.591
	C117.04,121.655,117.101,123.521,117.193,125.383z M171.225,159.609c-4.265,0-16.593-13.696-16.593-39.837
	c0-26.14,12.329-39.839,16.593-39.839c4.265,0,16.594,13.699,16.594,39.839C187.819,145.913,175.49,159.609,171.225,159.609z
	 M358.772,145.202c-3.003,4.421-6.024,6.435-7.558,6.435c-1.536,0-4.556-2.014-7.563-6.435c-4.977-7.32-7.83-17.984-7.83-29.252
	c0-11.268,2.854-21.93,7.833-29.248c3.005-4.422,6.024-6.438,7.561-6.438c1.533,0,4.552,2.016,7.561,6.44
	c4.977,7.315,7.829,17.975,7.829,29.246C366.604,127.218,363.752,137.881,358.772,145.202z M553.215,117.352l-6.065-1.015v-14.682
	c0-9.133,2.888-13.982,6.065-16.555V117.352z"/>
<g>
	<g>
		<g>
			<polygon fill="#CCCC33" points="402.248,416.575 398.324,428.346 555.145,428.346 555.145,416.575 			"/>
			<polygon fill="#CCCC33" points="313.73,416.575 85.658,416.575 85.658,428.346 323.148,428.346 			"/>
		</g>
		<rect x="85.739" y="585.78" fill="#CCCC33" width="469.405" height="11.769"/>
	</g>
	<path fill="#CCCC33" d="M454.882,225.082c-9.011-4.057-19.076-7.563-28.771-10.406c-24.994-7.323-68.858-11.142-103.178-2.177
		c-11.553,3.02-22.452,7.058-32.456,11.758c-97.176-40.265-192.495-9.735-234.284,38.795c0.711-0.283,1.461-0.582,2.245-0.89
		c25.694-23.692,70.801-44.331,130.779-47.312c-35.23,5.069-64.655,17.574-87.868,34.016c0.789-0.174,1.584-0.347,2.381-0.51
		c31.875-17.012,68.528-27.76,109.726-30.116c-27.592,4.376-52.206,12.811-74.389,26.073c0.611-0.005,1.222-0.009,1.833-0.005
		c14.857-5.798,55.373-21.762,92.438-22.672c-26.271,4.286-47.741,13.157-68.522,25.282c0.474,0.108,0.946,0.22,1.419,0.335
		c25.148-9.746,53.04-18.849,86.752-20.163c-28.5,3.769-50.788,13.008-70.654,25.839c0.373,0.179,0.747,0.355,1.116,0.539
		c34.883-14.555,73.43-21.654,97.056-22.566c-12.439,6.542-23.173,14.136-31.577,22.041c0.387-0.011,0.775-0.021,1.171-0.029
		c26.245-18.34,70.077-34.784,112.985-36.295c-34.871,4.408-65.395,19.207-85.65,36.46c0.423,0.029,0.871,0.067,1.34,0.108
		c26.892-16.512,67.942-30.786,106.274-32.468c-33.096,4.423-62.654,18.924-82.888,35.918c0.535,0.108,1.071,0.219,1.615,0.333
		c26.624-15.742,65.201-29.307,99.287-32.24c-31.053,5.214-59.78,20.231-79.413,37.414c0.433,0.136,0.86,0.267,1.293,0.407
		c24.7-16.004,61.509-29.508,95.92-31.626c-28.743,3.782-60.506,20.931-80.509,37.483c0.315,0.138,0.628,0.283,0.94,0.426
		c0.057-0.034,0.104-0.072,0.163-0.106c26.24-15.493,67.332-30.593,98.383-32.845c-15.957,6.861-29.567,16.066-39.849,26.104
		c0.322-0.025,0.651-0.045,0.98-0.07c23.941-16.474,60.923-30.068,97.826-31.924c-29.662,4.381-53.739,16.907-70.791,32.542
		c0.372,0.041,0.739,0.083,1.115,0.127c23.424-15.015,58.603-26.863,91.932-28.822c-29.114,4.512-53.144,17.03-70.088,33.091
		c0.28,0.075,0.562,0.154,0.843,0.233c22.617-15.146,56.38-26.24,87.825-29.479c-24.539,4.723-52.175,21.327-68.883,36.204
		c0.258,0.111,0.514,0.222,0.774,0.335c22.188-13.667,57.701-28.167,87.164-30.405c-26.731,4.055-55.617,22.908-71.035,38.709
		c0.213,0.125,0.424,0.256,0.634,0.383c23.423-15.209,64.087-32.573,96.195-34.544C563.722,229.449,507.049,210.806,454.882,225.082
		z"/>
</g>
<g>
	<path fill="#FFDE14" d="M248.449,492.557c0-18.265-10.428-43.219-47.219-43.219h-15.395v115.449h18.354v-22.189
		c1.654-0.349,3.292-0.75,4.909-1.218l15.319,23.407h21.822l-20.36-31.012C239.176,525.096,248.449,511.113,248.449,492.557z
		 M204.19,523.631v-55.86c21.35,1.131,25.905,14.014,25.905,24.786C230.095,499.757,227.518,516.858,204.19,523.631z"/>
	<rect x="264.496" y="449.338" fill="#FFDE14" width="18.354" height="115.449"/>
	<polygon fill="#FFDE14" points="115.386,467.689 136.879,467.689 136.879,564.787 155.232,564.787 155.232,467.689 
		176.727,467.689 176.727,449.338 115.386,449.338 	"/>
	<polygon fill="#FFDE14" points="397.694,564.787 454.299,564.787 454.299,546.435 416.048,546.435 416.048,520.543 
		440.716,520.543 440.716,502.19 416.048,502.19 416.048,467.689 448.412,467.689 448.412,449.338 397.694,449.338 	"/>
	<polygon fill="#FFDE14" points="377.405,449.338 356.079,449.338 326.352,499.578 326.352,449.338 307.997,449.338 
		307.997,564.787 326.352,564.787 326.352,535.619 337.104,517.447 360.87,564.787 381.409,564.787 348.215,498.668 	"/>
	<g>
		<path fill="#FFDE14" d="M493.855,488.809c-5.344-3.659-11.99-7.847-11.99-11.198c0-9.686,17.268-10.659,29.897-10.363v-18.354
			c-26.476,0-48.252,7.795-48.252,26.148c0,15.195,10.614,22.5,19.978,28.913c9.569,6.547,15.842,11.342,15.842,18.059
			c0,16.788-20.336,24.647-34.772,24.867v18.314c11.946-0.383,25.242-4.065,34.453-10.192c12.043-8.011,18.673-19.728,18.673-32.989
			C517.684,505.116,503.912,495.691,493.855,488.809z"/>
	</g>
</g>
<g>
	<g>
		<path fill="#35459B" d="M134.77,366.002c-5.969-5.047-11.169-11.064-15.456-17.887c-4.437-7.059-7.684-14.659-9.652-22.592
			c-4.167-16.792-1.932-32.962,6.131-44.365c3.023-4.274,6.752-7.712,11.084-10.222c4.492-2.604,9.556-4.156,15.047-4.609
			c0.095-0.006,0.188-0.013,0.283-0.023c1.033-0.077,2.072-0.115,3.114-0.115c-2.494-0.249-4.967-0.283-7.409-0.1
			c-0.097,0.009-0.188,0.014-0.285,0.025c-5.491,0.451-10.554,2-15.047,4.604c-4.333,2.51-8.062,5.95-11.083,10.227
			c-8.065,11.399-10.299,27.569-6.131,44.362c1.967,7.933,5.215,15.536,9.651,22.592c4.287,6.821,9.487,12.84,15.457,17.884
			c5.897,4.985,12.229,8.755,18.82,11.205c5.567,2.07,11.112,3.112,16.524,3.112c-4.034-0.403-8.125-1.37-12.23-2.897
			C146.999,374.756,140.668,370.987,134.77,366.002z"/>
		<path fill="#35459B" d="M340.865,391.13c1.226,5.112,5.479,9.492,9.5,9.782c4.018,0.288,6.283-3.624,5.056-8.738
			c-1.229-5.112-5.481-9.49-9.503-9.78c-1.085-0.077-2.04,0.151-2.835,0.625c0.043-2.285,1.152-5.126,3.148-6.29
			c3.178-1.857,8.274-1.051,12.479,2.877c2.985,2.795,5.121,6.697,6.011,10.997c0.951,4.59,0.326,8.976-1.717,12.031
			c-0.313,0.467-0.657,0.897-1.026,1.279c1.146-0.6,2.138-1.472,2.942-2.598c2.17-3.044,2.723-7.502,1.518-12.239
			c-1.128-4.43-3.626-8.509-7.035-11.48c-4.999-4.366-10.802-4.708-14.233-2.584c-3.658,2.265-4.333,6.295-3.825,9.869
			C340.494,386.455,340.27,388.651,340.865,391.13z"/>
		<path fill="#35459B" d="M360.306,389.496c-1.225-5.113-5.479-9.492-9.499-9.779c-1.984-0.146-3.543,0.737-4.462,2.283
			c0.682-0.3,1.463-0.439,2.333-0.382c3.859,0.269,7.976,4.442,9.098,9.059c0.884,3.631-0.224,6.589-2.541,7.554
			c0.007,0,0.012,0,0.018,0C359.271,398.521,361.534,394.608,360.306,389.496z"/>
	</g>
	<path fill="#35459B" d="M541.045,376.61c-2.779-3.526-4.534-5.83-8.723-11.824c0.421-0.104,1.164,0.119,1.902,0.34
		c0.598-0.587,1.164-1.206,1.694-1.85c-0.338-0.854-0.684-1.719-0.422-2.079c0.264-0.362,1.192-0.299,2.109-0.24
		c0.448-0.703,0.858-1.431,1.232-2.181c-0.523-0.757-1.059-1.52-0.884-1.933c0.173-0.411,1.092-0.562,2-0.713
		c0.274-0.783,0.508-1.585,0.702-2.403c-0.685-0.618-1.377-1.238-1.3-1.683c0.074-0.442,0.936-0.791,1.785-1.145
		c0.09-0.824,0.141-1.66,0.145-2.505c-0.802-0.452-1.617-0.903-1.64-1.356c-0.023-0.441,0.741-0.969,1.492-1.5
		c-0.045-0.417-0.1-0.837-0.165-1.256c-0.072-0.439-0.152-0.88-0.245-1.311c-0.883-0.289-1.779-0.576-1.904-1.028
		c-0.125-0.457,0.503-1.159,1.116-1.856c-0.28-0.843-0.602-1.668-0.964-2.47c-0.927-0.097-1.863-0.188-2.08-0.602
		c-0.215-0.419,0.249-1.237,0.707-2.05c-0.448-0.764-0.938-1.504-1.459-2.225c-0.927,0.095-1.861,0.194-2.156-0.17
		c-0.297-0.364-0.002-1.257,0.283-2.143c-0.592-0.661-1.219-1.296-1.871-1.9c-0.891,0.274-1.789,0.551-2.149,0.249
		c-0.36-0.301-0.242-1.232-0.132-2.156c-0.708-0.536-1.444-1.04-2.201-1.513c-0.824,0.439-1.651,0.884-2.063,0.654
		c-0.409-0.229-0.471-1.167-0.536-2.097c-0.798-0.391-1.613-0.748-2.447-1.065c-0.724,0.585-1.454,1.179-1.901,1.035
		c-0.447-0.145-0.685-1.055-0.927-1.955c-0.854-0.23-1.725-0.421-2.603-0.572c-0.596,0.714-1.196,1.434-1.668,1.379
		c-0.463-0.054-0.873-0.899-1.289-1.734c-0.881-0.059-1.768-0.075-2.66-0.05c-0.444,0.819-0.891,1.648-1.362,1.689
		c-0.453,0.036-1.007-0.714-1.556-1.45c-0.847,0.113-1.676,0.265-2.486,0.453c-0.254,0.886-0.499,1.78-0.925,1.903
		c-0.437,0.127-1.127-0.496-1.815-1.105c-0.386,0.136-0.765,0.278-1.138,0.431c-3.855-5.387-4.312-6.243-6.654-9.978l2.656-1.32
		l0.891,3.604c0.227,0.917,1.082,1.511,1.993,1.436c0.095-0.007,0.19-0.022,0.287-0.048c1.013-0.24,1.64-1.255,1.404-2.269
		l-2.659-11.465c-0.238-1.02-1.255-1.654-2.274-1.418c-1.017,0.238-1.652,1.255-1.415,2.273l0.942,4.07l-4.222,2.095
		c-4.65-3.608-11.435,1.839-7.226,7.465c2.358,3.148,3.373,4.424,7.365,10.39l-13.463,6.632c-0.138-1.144-0.308-2.297-0.515-3.453
		c-5.655-31.677-35.213-55.468-65.381-51.611c-27.013,3.45-43.387,27.71-40.043,55.059c-1.229-0.657-2.469-1.273-3.724-1.85
		c0.733-6.702-1.185-12.126-12.123-16.615c0.245-1.16,0.571-2.772,1.016-5.049c0.43-2.192,0.957-4.917,1.578-8.143
		c0.985,0.347,2.011,0.815,2.906,1.454c1.893,1.354,2.819,3.107,2.663,5.303c-0.287,4.029-0.409,5.676-0.479,6.582
		c-0.089,1.211,1.73,1.363,2.095,0.512c0.032-0.077,3.239-7.565,4.543-10.483c1.036-2.317,0.769-6.027,0.551-9.01
		c-0.081-1.136-0.154-2.12-0.132-2.776c0.037-0.999,1.197-2.625,2.7-3.79c1.081-0.833,2.18-1.282,2.795-1.144
		c0.51,0.111,1.018-0.207,1.131-0.718c0.115-0.51-0.207-1.017-0.716-1.133c-1.64-0.367-3.44,0.782-4.367,1.496
		c-1.665,1.286-3.373,3.397-3.434,5.221c-0.048,1.37,0.115,6.618-1.421,6.897c-1.12,0.202-2.6-0.349-4.054-1.126
		c-0.888-0.474-1.81-0.903-2.697-1.271c0.813-3.751,4.346-20.879,4.346-20.879c0.425-2.265-1.064-4.442-3.326-4.865
		c-2.263-0.428-4.442,1.064-4.866,3.323c-2.674,14.243-3.427,17.606-4.007,19.959c-0.407,1.244-0.194,2.582,0.51,3.622
		c-1.672,8.698-3.071,15.829-3.352,16.916c-0.456,1.332,0.138,2.827,1.434,3.463c0.249,0.125,0.507,0.207,0.77,0.254
		c5.883,2.161,9.174,4.503,10.048,7.151c0.24,0.727,0.331,1.604,0.314,2.589c-8.414-2.979-17.296-4.166-26.117-3.142
		c-8.24,0.958-15.57,3.741-21.762,7.941c-1.866-0.587-3.45-1.244-4.809-1.952c0.093-0.146,0.175-0.295,0.245-0.461
		c0.186-0.443,0.389-1.422,1.298-8.213c0.296-2.21,0.657-4.965,1.079-8.224c1.005,0.288,2.058,0.693,2.989,1.276
		c1.97,1.238,3.004,2.928,2.983,5.133c-0.044,4.04-0.067,5.688-0.079,6.6c-0.016,1.214,1.808,1.255,2.12,0.381
		c0.029-0.077,2.772-7.745,3.897-10.739c0.896-2.375,0.401-6.063,0.005-9.026c-0.151-1.132-0.283-2.108-0.299-2.763
		c-0.025-0.999,1.033-2.695,2.462-3.943c1.028-0.901,2.098-1.416,2.721-1.316c0.517,0.082,1.003-0.27,1.085-0.786
		c0.086-0.514-0.268-1.001-0.784-1.085c-1.66-0.267-3.386,0.986-4.268,1.758c-1.582,1.384-3.157,3.599-3.109,5.418
		c0.034,1.373,0.517,6.603-0.999,6.972c-1.105,0.27-2.616-0.188-4.116-0.876c-0.914-0.421-1.859-0.793-2.77-1.105
		c0.584-3.793,3.07-21.105,3.07-21.105c0.287-2.286-1.333-4.369-3.616-4.654c-2.285-0.288-4.37,1.332-4.655,3.615
		c-1.805,14.378-2.351,17.781-2.788,20.166c-0.33,1.268-0.034,2.589,0.731,3.585c-0.92,7.069-1.724,13.117-2.113,15.779
		c-1.23-1.271-2.169-2.614-3.026-3.978c-8.526-13.565-11.569-15.88-37.564-33.695c-26.855-18.401-25.378-24.136-35.562-40.408
		c-16.883,1.122-41.995,10.811-48.321,16.99c-13.685-10.281-29.795-15.95-45.589-14.754c-33.905,2.566-53.517,35.792-43.803,74.211
		c9.712,38.419,45.071,67.479,78.976,64.913c13.862-1.049,25.334-7.229,33.391-16.784l81.178,11.701l-0.048-1.06l-79.559-12.604
		c3.679-4.844,6.537-10.456,8.464-16.636l79.426,25.143c0.24,4.666,0.985,9.461,2.273,14.314
		c8.999,33.923,41.293,58.352,72.432,55.088c30.988-3.246,49.998-32.753,42.576-66.684c8.374,3.558,17.411,5.13,26.378,4.201
		c16.908-1.751,30.388-12.039,37.058-26.661l15.74-3.673c0.296,0.465,0.604,0.923,0.928,1.364c0.927-0.093,1.862-0.195,2.159,0.17
		c0.294,0.366,0,1.259-0.285,2.143c0.593,0.664,1.219,1.3,1.87,1.902c0.891-0.271,1.79-0.553,2.15-0.251
		c0.359,0.301,0.242,1.234,0.131,2.16c0.711,0.535,1.445,1.037,2.203,1.511c0.823-0.435,1.65-0.884,2.062-0.654
		c0.412,0.229,0.471,1.167,0.537,2.096c0.797,0.392,1.612,0.747,2.445,1.066c0.725-0.582,1.454-1.18,1.903-1.033
		c0.38,0.125,0.694,1.339,0.929,2.254l-39.489,8.893l0.401,0.987l54.736-10.332c3.775,5.053,4.994,6.989,7.293,10.398l-3.048,1.729
		l-0.975-3.511c-0.279-1.005-1.313-1.597-2.319-1.325c-1.006,0.272-1.604,1.306-1.339,2.312l2.988,11.384
		c0.235,0.905,1.084,1.481,1.983,1.408c0.109-0.009,0.218-0.027,0.327-0.054c1.012-0.268,1.617-1.303,1.354-2.315l-1.07-4.077
		l4.389-2.493c2.059,1.846,4.63,1.633,6.415,0.299C542.629,383.222,543.634,379.891,541.045,376.61z M367.871,344.49
		c6.449,3.629,13.151,9.695,18.273,17.064c-4.413,3.217-9.519,6.929-14.167,10.188l-8.922-2.555l-0.589-2.838L367.871,344.49z
		 M358.836,408.418c-8.761,0.51-18.029-7.578-20.697-18.069c-2.673-10.492,2.262-19.412,11.023-19.921
		c8.759-0.51,18.025,7.578,20.695,18.067C372.53,398.987,367.595,407.906,358.836,408.418z M281.905,319.952
		c-3.357,1.588-11.552,6.248-18.113,9.569c-1.307-0.922-2.571-1.71-3.724-2.338c-1.625-0.883-3.163-1.721-4.625-2.517
		c6.231-3.442,15.739-8.188,22.127-9.332C278.99,316.804,280.432,318.362,281.905,319.952z M268.507,306.638
		c1.468,1.402,2.974,2.841,4.524,4.288c-3.175,1.497-13.582,7.185-21.84,11.427c-2.958-1.613-5.564-3.04-7.912-4.333
		C249.754,313.909,260.895,308.115,268.507,306.638z M263.987,302.373c-4.103,1.937-16.293,8.494-25.146,13.176
		c-2.668-1.504-4.996-2.85-7.188-4.168c6.321-4.578,18.99-11.379,27.661-13.092C260.84,299.528,262.394,300.905,263.987,302.373z
		 M248.875,290.102c2.095,1.918,4.199,3.914,5.024,4.387c-5.144,2.433-18.08,9.391-26.756,14.098
		c-2.289-1.461-4.591-2.994-7.167-4.77C226.756,299.277,239.588,291.906,248.875,290.102z M204.22,318.898
		c0.333,1.218,0.631,2.433,0.898,3.64c-10.853-0.582-23.36-1.228-35.222-1.855c1.574-2.36,1.663-4.94,0.813-6.229l32.154-0.014
		C203.357,315.911,203.81,317.397,204.22,318.898z M169.532,382.951c-28.216,2.129-58.436-23.099-67.494-56.345
		c-9.059-33.246,6.471-61.921,34.688-64.05c25.038-1.889,51.648,17.76,63.657,45.436c-12.246,0.201-24.778,0.455-35.788,0.455
		c-0.831,0.906-1.702,1.966-2.58,3.117l-7.044,3.166c0.016-0.294,0.049-0.613,0.059-0.898c-0.353-0.245-0.714-0.471-1.081-0.687
		c-0.645,0.333-1.411,0.89-1.764,0.713c-0.362-0.177-0.396-1.13-0.525-1.844c-0.393-0.159-0.788-0.299-1.188-0.426
		c-0.55,0.476-1.17,1.203-1.557,1.119c-0.396-0.083-0.673-1.012-0.985-1.671c-0.406-0.047-0.812-0.082-1.219-0.093
		c-0.401,0.607-0.799,1.498-1.201,1.533c-0.375,0.03-0.882-0.806-1.337-1.35c-0.35,0.061-0.691,0.14-1.027,0.231
		c-0.166,0.691-0.233,1.676-0.568,1.812c-0.348,0.145-1.107-0.517-1.715-0.883c-0.299,0.163-0.586,0.342-0.865,0.527
		c0.061,0.711,0.325,1.692,0.045,1.937c-0.281,0.249-1.23-0.141-1.925-0.292c-0.224,0.247-0.437,0.508-0.639,0.777
		c0.281,0.655,0.847,1.513,0.653,1.841c-0.19,0.317-1.213,0.225-1.924,0.292c-0.141,0.306-0.272,0.621-0.39,0.938
		c0.455,0.553,1.237,1.218,1.137,1.585c-0.095,0.358-1.096,0.532-1.769,0.779c-0.059,0.34-0.108,0.68-0.145,1.029
		c0.575,0.423,1.481,0.878,1.468,1.261c-0.01,0.365-0.931,0.75-1.534,1.137c0.017,0.352,0.042,0.705,0.081,1.064
		c0.651,0.291,1.612,0.553,1.675,0.924c0.06,0.356-0.753,0.906-1.272,1.396c0.034,0.151,0.073,0.301,0.112,0.457
		c0.06,0.225,0.124,0.446,0.191,0.668c0.704,0.209,1.689,0.328,1.83,0.709c0.141,0.386-0.524,1.104-0.93,1.715
		c0.169,0.38,0.35,0.757,0.541,1.124c0.396,0.038,0.865,0.038,1.241,0.086l-2.574,1.889c0.431-0.738-4.408,3.114-0.625,6.351
		c2.062,1.763,4.5,3.912,6.001,5.453c3.001,3.086,1.049,8.875,0.283,11.204c-0.163-0.009-0.325-0.007-0.487,0.007
		c-2.299,0.193-3.606,2.474-2.915,5.092c0.625,2.376,2.675,4.215,4.768,4.392l49.162,7.088
		C186.057,378.973,178.425,382.28,169.532,382.951z M194.233,371.65l-47.742-7.563c0.203-0.76,0.207-1.63-0.035-2.545
		c-0.3-1.142-0.927-2.157-1.731-2.925c5.837-6.467,10.067-11.802,4.295-17.206c0.36-0.336,0.704-0.617,0.955-0.564
		c0.397,0.088,0.671,1.015,0.984,1.669c0.405,0.052,0.813,0.082,1.22,0.096c0.399-0.605,0.799-1.495,1.2-1.531
		c0.375-0.032,0.882,0.807,1.338,1.35c0.35-0.063,0.693-0.143,1.026-0.236c0.167-0.688,0.233-1.671,0.569-1.811
		c0.348-0.144,1.108,0.519,1.715,0.887c0.298-0.162,0.586-0.342,0.865-0.529c-0.048-0.575-0.232-1.329-0.15-1.726l45.833,14.512
		C202.478,360.622,198.956,366.804,194.233,371.65z M206.213,345.958l-43.069-12.896c0.194-0.057,0.388-0.115,0.56-0.177
		c0.059-0.34,0.107-0.682,0.143-1.03c-0.573-0.424-1.479-0.882-1.467-1.259c0.011-0.365,0.933-0.753,1.535-1.138
		c-0.016-0.352-0.042-0.706-0.081-1.066c-0.65-0.291-1.61-0.551-1.674-0.925c-0.023-0.126,0.068-0.276,0.213-0.439l44.219,5.243
		C206.973,337.032,206.834,341.618,206.213,345.958z M205.624,283.729c-0.231-0.766-0.444-1.533-0.651-2.301
		c6.413-8.657,18.373-14.978,28.683-12.054c3.009,1.817,5.884,4.426,8.601,8.408c-3.379-4.954-13.245-6.895-19.087-4.648
		c-6.181,2.375-13.359,9.574-8.048,25.23C210.378,293.917,207.476,288.86,205.624,283.729z M216.248,318.273
		c-0.327-1.291-0.683-2.571-1.066-3.839h0.606c1.657,1.37,3.415,2.786,5.29,4.253c2.301,1.806,4.464,3.507,6.499,5.116
		c-2.802-0.176-6.276-0.377-10.238-0.599C217.028,321.571,216.666,319.927,216.248,318.273z M217.729,349.405
		c0.874-4.982,1.191-10.246,0.898-15.702l8.976,1.062c2.542,6.853,8.241,16.756,15.157,22.135L217.729,349.405z M266.388,364.047
		c-15.803-8.436-23.218-17.703-28.641-28.077l5.486,0.65c8.98,7.769,14.025,13.329,18.647,20.333
		c1.567,2.374,3.059,4.907,5.479,7.393L266.388,364.047z M267.228,332.205c5.307-2.761,13.225-6.817,18.629-8.031
		c1.581,1.653,3.208,3.293,4.897,4.865c-2.994,1.422-12.028,5.78-18.079,8.779C271.033,335.752,269.147,333.854,267.228,332.205z
		 M275.339,341.736c5.562-3.048,14.059-7.452,19.941-8.804c1.65,1.295,3.364,2.489,5.146,3.542
		c-7.031,2.102-17.597,6.979-22.772,11.188C277.226,345.623,276.413,343.632,275.339,341.736z M297.193,363.463
		c-1.912-0.356-3.793-0.781-5.499-1.221c-11.567-2.983,3.023-12.263,14.841-17.67C302.248,349.994,299.071,356.404,297.193,363.463z
		 M366.872,440.89c-24.768,2.611-51.116-17.701-59.053-45.73c-8.054-28.446,5.815-54.17,31.192-57.085
		c7.957-0.913,16.05,0.53,23.643,3.821l-4.307,17.433c-0.575-0.15-1.188-0.198-1.814-0.117c-2.593,0.333-4.426,2.707-4.093,5.303
		l0.306,1.554c-0.392-0.063-0.785-0.12-1.177-0.163l-9.158-2.619c6.709-3.913,10.578-7.764,12.229-10.971
		c1.479-2.87,0.389-6.079-1.258-7.871c-0.716-0.783-1.714-1.443-2.978-1.967c2.28,1.833-0.699,5.446-7.917,10.963
		c-5.364,4.098-11.053,7.273-22.444,9.067c-0.463-1.641-0.913-3.275-1.34-4.861c0.455-0.763,0.937-1.508,1.446-2.237
		c2.587-3.681,5.786-6.68,9.504-8.91c3.857-2.313,8.209-3.756,12.929-4.285c0.084-0.008,0.163-0.017,0.247-0.025
		c0.886-0.094,1.78-0.154,2.678-0.184c-2.147-0.14-4.274-0.104-6.374,0.118c-0.081,0.009-0.161,0.015-0.245,0.026
		c-4.723,0.528-9.073,1.971-12.931,4.283c-3.72,2.231-6.917,5.23-9.504,8.911c-6.901,9.82-8.776,23.499-5.142,37.533
		c1.717,6.625,4.535,12.942,8.372,18.768c3.708,5.634,8.2,10.561,13.349,14.648c5.088,4.04,10.547,7.046,16.223,8.931
		c4.798,1.595,9.572,2.323,14.227,2.177c-3.472-0.23-6.997-0.936-10.53-2.108c-5.676-1.89-11.135-4.893-16.222-8.932
		c-5.15-4.093-9.643-9.019-13.351-14.647c-3.839-5.828-6.655-12.143-8.371-18.772c-0.414-1.6-0.756-3.195-1.028-4.784l21.052,6.589
		c4.652,11.056,15.544,18.762,25.75,17.688c11.237-1.182,17.384-12.557,13.729-25.415c-0.075-0.263-0.154-0.521-0.235-0.781
		l22.414-5.229C407.112,409.882,391.536,438.289,366.872,440.89z M336.85,371.59c-2.161,2.654-3.54,6.067-3.953,9.911
		c-5.979-1.391-7.791-2.774-10.414-10.86c1.871-0.294,3.799-0.69,5.824-1.251L336.85,371.59z M320.578,380.701l-7.382-2.26
		c0.031-2.354,0.229-4.659,0.588-6.893c0.979-0.077,1.958-0.151,2.94-0.235c0.083,0.267,0.166,0.534,0.25,0.797
		C318.12,375.734,319.176,378.509,320.578,380.701z M436.553,380.189c-7.147,0.752-14.41-0.573-21.182-3.54l5.01-1.169
		c0.076,0.022,0.152,0.048,0.227,0.072c4.172,1.283,8.354,1.851,12.472,1.694c-2.745-0.149-6.247-1.173-9.437-2.527l37.447-8.736
		C455.462,373.834,446.899,379.1,436.553,380.189z M467.43,351.415l-60.822,14.188c-0.886-0.797-1.739-1.629-2.568-2.491
		c-0.338-0.577-0.683-1.157-1.035-1.728c1.001-0.723,1.805-1.291,2.357-1.67c5.862-3.993,8.884-7.62,10.834-11.71
		c4.606,4.333,10.491,6.797,16.141,6.204c9.875-1.04,14.895-10.938,12.062-22.338c-3.17-12.777-13.82-19.615-23.698-18.575
		c-0.85,0.088-1.667,0.247-2.448,0.464c-0.915-2.004-3.142-3.159-5.373-2.643c-2.546,0.589-4.138,3.135-3.547,5.681l0.596,3.518
		c-2.321,4.078-2.942,9.527-1.293,15.316c0.285,1.003,0.627,1.979,1.023,2.932c-1.605,5.354-1.3,7.313-12.254,14.895
		c-0.659-0.818-1.334-1.627-2.024-2.417c-1.849-3.559-3.273-7.312-4.252-11.223c-3.105-12.429-1.195-24.875,5.385-34.075
		c2.495-3.488,5.565-6.365,9.121-8.539c3.707-2.265,7.866-3.719,12.36-4.309c0.077-0.011,0.153-0.02,0.23-0.029
		c0.847-0.104,1.696-0.179,2.55-0.222c-2.034-0.098-4.049-0.025-6.049,0.227c-0.077,0.009-0.154,0.018-0.234,0.029
		c-4.486,0.589-8.638,2.039-12.334,4.304c-3.548,2.174-6.605,5.049-9.09,8.539c-6.549,9.196-8.422,21.635-5.28,34.057
		c0.434,1.715,0.952,3.397,1.556,5.049c-1.399-1.285-2.842-2.512-4.319-3.679c-7.043-25.166,5.786-48.704,29.185-51.633
		c23.678-2.967,47.641,16.43,53.086,42.306c0.575,2.743,0.919,5.443,1.042,8.081l-32.716,16.116l0.625,0.86l32.138-14.127
		C468.345,345.762,468.019,348.651,467.43,351.415z M427.438,336.584c-0.974-4.053-3.94-7.645-6.972-8.673
		c-0.036-0.276-0.072-0.56-0.111-0.848c0.384-0.076,0.789-0.104,1.226-0.062c3.28,0.325,6.827,4.146,7.842,8.297
		c0.795,3.263-0.108,5.878-2.061,6.691c0.001,0,0.009,0,0.011,0c3.418,0.35,5.289-3.094,4.182-7.689
		c-1.105-4.597-4.772-8.603-8.188-8.949c-1.271-0.129-2.326,0.265-3.097,1.047c-0.167-1.287-0.346-2.655-0.521-3.978
		c2.693-1.354,6.838-0.46,10.326,3.011c2.568,2.561,4.431,6.097,5.241,9.954c0.865,4.124,0.392,8.027-1.305,10.708
		c-0.261,0.413-0.546,0.789-0.856,1.122c0.968-0.51,1.799-1.267,2.465-2.253c1.805-2.669,2.218-6.642,1.135-10.9
		c-1.016-3.981-3.187-7.679-6.118-10.409c-3.85-3.593-8.194-4.313-11.137-3.124c-0.151-1.135-0.287-2.172-0.4-3.021
		c0.855-0.283,1.771-0.455,2.749-0.492c7.432-0.256,15.402,7.178,17.803,16.608c2.401,9.429-1.676,17.283-9.104,17.544
		c-4.581,0.158-9.357-2.607-12.915-6.956c0.226-0.643,0.522-1.574,0.847-2.639c1.442,1.516,3.14,2.532,4.779,2.7
		C426.675,344.62,428.546,341.177,427.438,336.584z M490.873,336.095c-0.173,0.412-1.093,0.56-1.999,0.713
		c-0.275,0.784-0.509,1.586-0.702,2.405c0.683,0.617,1.376,1.237,1.299,1.686c-0.075,0.437-0.937,0.784-1.785,1.14
		c-0.09,0.824-0.141,1.659-0.146,2.507c0.802,0.451,1.617,0.902,1.641,1.355c0.009,0.156-0.084,0.326-0.238,0.497l-8.876,2.07
		c0.491-3.542,0.639-7.229,0.408-11.01l10.133-4.455c-0.218,0.381-0.424,0.768-0.618,1.159
		C490.512,334.916,491.047,335.683,490.873,336.095z M496.417,344.656l-3.399,0.792c-0.084-4.679,1.507-8.994,4.306-12.371
		c0.693,1.076,1.377,2.152,2.043,3.219C497.636,338.686,496.585,341.556,496.417,344.656z M497.604,344.377
		c0.562-2.246,1.599-4.303,3.021-6.042c0.987,1.612,1.923,3.187,2.781,4.69L497.604,344.377z M508.449,363.48
		c-0.182,1.656-1.481,1.776-2.673,1.196c-2.663-1.301-5.062-3.092-7.042-5.258c-0.682-0.745-0.836-2.035,0.918-2.457
		c1.836-0.446,4.255-1.02,5.566-1.269c2.297-0.445,3.294,1.267,3.404,2.696C508.73,359.739,508.671,361.41,508.449,363.48z
		 M512.798,352.561c0.122-0.006,0.242-0.015,0.364-0.033c2.005-0.276,3.287-2.165,2.865-4.22c-0.425-2.05-2.394-3.491-4.398-3.214
		c-1.912,0.265-3.164,1.995-2.912,3.932c-0.046-0.149-0.087-0.301-0.118-0.459c-0.53-2.556,1.083-4.911,3.599-5.258
		c2.517-0.347,4.99,1.445,5.519,4c0.529,2.559-1.081,4.912-3.6,5.261C513.672,352.631,513.229,352.625,512.798,352.561z
		 M510.204,332.822c0.48-0.082,0.97-0.146,1.466-0.189c2.328-0.189,4.616,0.094,6.768,0.769c-0.994,0.951-1.889,1.614-2.69,2.005
		c-0.589,0.283-1.116,0.416-1.617,0.405c-0.697-0.014-1.407-0.268-2.152-0.786C511.385,334.299,510.791,333.562,510.204,332.822z
		 M518.483,366.86c-1.857,0.222-2.546-1.31-2.449-2.414c0.12-1.366,0.261-2.564,0.424-3.611c1.459,1.794,2.946,3.683,4.428,5.595
		C520.104,366.616,519.303,366.761,518.483,366.86z M521.6,329.848c-0.354,0.443-0.693,0.862-1.025,1.258
		c-2.784-1.188-5.869-1.74-9.018-1.481c-1.174,0.094-2.302,0.303-3.379,0.606c-0.331-0.433-0.659-0.863-0.985-1.294
		c-0.798-1.048-0.292-2.122,0.708-2.362c1.047-0.249,2.134-0.423,3.253-0.516c3.266-0.27,6.474,0.192,9.438,1.245
		C521.81,327.734,522.087,329.231,521.6,329.848z M527.965,334.143c0.679-0.821,1.915-0.867,3.014,0.489
		c2.336,2.885,3.966,6.341,4.566,10.127c0.159,0.995,0.24,1.979,0.249,2.946c0.021,1.983-0.665,2.69-2.062,2.177
		c-0.571-0.208-1.116-0.412-1.636-0.616c0.111-1.3,0.067-2.643-0.151-4.01c-0.601-3.777-2.424-7.166-5.021-9.816
		C527.248,335.023,527.593,334.588,527.965,334.143z M523.438,343.604c-0.448-1.49,0.155-3.411,2.021-6.166
		c3.033,2.75,5.189,6.474,5.851,10.687c0.048,0.295,0.082,0.587,0.113,0.876C526.454,347.005,523.945,345.295,523.438,343.604z
		 M531.718,359.64c-0.515,0.646-1.073,1.259-1.674,1.835c-1.397-2.064-2.8-4.195-4.168-6.356c1.44,0.467,3.107,1.114,5.037,1.952
		C532.467,357.744,532.398,358.783,531.718,359.64z"/>
</g>
<g>
	<path fill="#FFDE14" d="M502.182,196.545c-5.921-1.216-11.923-2.374-17.837-3.442l-0.854-0.154V75.849
		c-7.979,5.046-16.953,16.857-17.992,35.219c0.06,1.312,0.09,2.535,0.09,3.733c0,0-0.017,8.761-0.044,42.915v1.212l-1.196-0.186
		c-5.895-0.911-11.934-1.778-17.951-2.576l-0.902-0.12v-0.91c-0.024-33.541-0.04-40.331-0.04-40.331
		c0-1.203,0.027-2.415,0.085-3.704c-1.048-18.384-10.016-30.204-17.988-35.252v109.033l-1.15-0.127
		c-5.837-0.636-11.837-1.237-17.842-1.775l-0.944-0.084v-129.4h13.771c11.955,0,25.495,9.404,34.136,23.562
		c8.642-14.158,22.182-23.562,34.134-23.562h13.771v143.305L502.182,196.545z"/>
	<path fill="#FFDE14" d="M227.933,53.496h10.103c7.522,0,23.61,8.186,36.335,29.873V53.482h19.939v125.939l-1.013,0.027
		c-6.039,0.158-12.041,0.372-17.841,0.627l-1.085,0.047v-3.556c0-45.887-9.937-71.497-18.274-84.901
		c-2.534-4.077-5.293-7.638-8.226-10.623v100.646l-0.963,0.071c-5.882,0.432-11.884,0.935-17.839,1.488l-1.136,0.106V53.496z"/>
	<path fill="#FFDE14" d="M580.599,217.859c-5.79-2.03-11.787-4.009-17.826-5.882l-0.729-0.227v-63.767l-23.722-3.963v60.96
		l-1.302-0.34c-5.722-1.493-11.72-2.967-17.831-4.383l-0.805-0.186v-98.417c0-35.094,25.591-48.172,41.72-48.172h21.876v164.861
		L580.599,217.859z M562.044,127.774V73.419h-1.928c-0.429,0.016-21.794,0.988-21.794,28.236v22.158L562.044,127.774z"/>
	<path fill="#FFDE14" d="M59.385,197.428l0.899-0.122c2.311-0.312,4.527-0.616,6.615-0.909
		c24.623-3.406,35.645-17.911,35.645-30.777c0-14.761-12.701-29.477-22.906-41.302c-4.513-5.23-8.774-10.167-11.384-14.444
		c-4.204-6.886-6.19-13.506-5.906-19.681c1.05-22.782,21.347-37.189,52.969-37.595l1.051-0.013v19.928l-1.017,0.02
		c-7.567,0.161-32.32,1.973-33.085,18.58c-0.094,2.034,1.001,5.087,3.007,8.374c1.756,2.878,5.499,7.214,9.459,11.805
		c12.363,14.321,27.752,32.151,27.752,54.328c0,11.826-4.942,23.353-13.912,32.453c-9.474,9.61-22.939,15.862-38.94,18.075
		c-2.811,0.39-5.862,0.807-9.068,1.239l-1.178,0.161V197.428z"/>
	<path fill="#FFDE14" d="M171.225,188.375c-25.011,0-45.359-30.774-45.359-68.603c0-37.828,20.348-68.604,45.359-68.604
		c25.011,0,45.358,30.777,45.358,68.604C216.583,157.601,196.236,188.375,171.225,188.375z M171.225,71.106
		c-12,0-25.421,20.811-25.421,48.666c0,27.853,13.421,48.666,25.421,48.666c12,0,25.421-20.813,25.421-48.666
		C196.646,91.917,183.225,71.106,171.225,71.106z"/>
	<path fill="#FFDE14" d="M351.212,180.402c-24.347,0-44.155-28.913-44.155-64.453c0-35.538,19.809-64.451,44.155-64.451
		c24.35,0,44.159,28.913,44.159,64.451C395.371,151.489,375.562,180.402,351.212,180.402z M351.212,71.437
		c-6.838,0-12.245,6.456-14.858,10.301c-5.947,8.746-9.358,21.216-9.358,34.211c0,12.994,3.411,25.466,9.358,34.215
		c2.613,3.848,8.023,10.299,14.858,10.299c6.838,0,12.247-6.451,14.86-10.299c5.951-8.749,9.359-21.218,9.359-34.215
		c0-12.995-3.408-25.465-9.359-34.211C363.459,77.893,358.053,71.437,351.212,71.437z"/>
</g>
</svg>
