<?xml version="1.0" encoding="utf-8"?>
<!-- Generator: Adobe Illustrator 16.0.0, SVG Export Plug-In . SVG Version: 6.00 Build 0)  -->
<!DOCTYPE svg PUBLIC "-//W3C//DTD SVG 1.1//EN" "http://www.w3.org/Graphics/SVG/1.1/DTD/svg11.dtd">
<svg version="1.1" id="Layer_1" xmlns="http://www.w3.org/2000/svg" xmlns:xlink="http://www.w3.org/1999/xlink" x="0px" y="0px"
	 width="600px" height="268px" viewBox="0 0 600 268" enable-background="new 0 0 600 268" xml:space="preserve">
<g>
	<path fill="#2E3191" d="M593.452,167.193c-3.638-4.61-5.936-7.629-11.413-15.473c0.548-0.139,1.521,0.155,2.487,0.444
		c0.783-0.766,1.522-1.575,2.221-2.42c-0.444-1.116-0.898-2.246-0.557-2.721c0.347-0.471,1.561-0.391,2.762-0.314
		c0.588-0.92,1.122-1.873,1.61-2.851c-0.683-0.992-1.385-1.99-1.155-2.532c0.228-0.538,1.427-0.729,2.618-0.93
		c0.358-1.027,0.663-2.076,0.916-3.148c-0.889-0.806-1.799-1.618-1.701-2.2c0.1-0.576,1.225-1.033,2.338-1.496
		c0.119-1.082,0.182-2.172,0.19-3.279c-1.05-0.591-2.116-1.182-2.146-1.775c-0.03-0.577,0.969-1.267,1.952-1.963
		c-0.059-0.542-0.129-1.095-0.217-1.643c-0.093-0.575-0.195-1.149-0.317-1.711c-1.158-0.381-2.332-0.757-2.492-1.347
		c-0.162-0.599,0.656-1.517,1.461-2.43c-0.369-1.102-0.793-2.182-1.264-3.232c-1.213-0.125-2.438-0.245-2.721-0.787
		c-0.282-0.55,0.324-1.619,0.925-2.685c-0.59-0.996-1.229-1.967-1.909-2.908c-1.213,0.124-2.438,0.254-2.822-0.223
		c-0.389-0.479-0.003-1.645,0.371-2.805c-0.778-0.865-1.596-1.693-2.449-2.485c-1.164,0.356-2.341,0.721-2.813,0.324
		c-0.47-0.391-0.316-1.611-0.17-2.82c-0.93-0.702-1.893-1.359-2.883-1.98c-1.076,0.575-2.16,1.155-2.699,0.859
		c-0.537-0.301-0.616-1.527-0.7-2.744c-1.046-0.513-2.111-0.981-3.201-1.394c-0.949,0.764-1.904,1.54-2.49,1.352
		c-0.583-0.188-0.894-1.379-1.211-2.555c-1.118-0.303-2.256-0.555-3.408-0.752c-0.781,0.934-1.563,1.878-2.18,1.806
		c-0.606-0.07-1.146-1.176-1.688-2.27c-1.151-0.076-2.314-0.097-3.48-0.065c-0.582,1.072-1.162,2.157-1.78,2.209
		c-0.597,0.051-1.319-0.931-2.04-1.896c-1.107,0.147-2.192,0.348-3.253,0.595c-0.33,1.158-0.654,2.329-1.208,2.489
		c-0.57,0.163-1.478-0.651-2.376-1.447c-0.504,0.178-1.001,0.363-1.492,0.564c-5.042-7.05-5.643-8.168-8.707-13.055l3.478-1.728
		l1.166,4.714c0.296,1.197,1.416,1.978,2.607,1.88c0.127-0.011,0.251-0.031,0.375-0.062c1.327-0.316,2.146-1.644,1.841-2.968
		l-3.482-15.005c-0.308-1.336-1.642-2.166-2.973-1.857c-1.335,0.312-2.166,1.642-1.855,2.976l1.235,5.328l-5.524,2.743
		c-6.084-4.725-14.965,2.404-9.456,9.766c3.085,4.12,4.413,5.788,9.641,13.593l-17.618,8.68c-0.179-1.499-0.402-3.005-0.676-4.519
		c-7.399-41.448-46.073-72.58-85.549-67.533c-35.345,4.514-56.772,36.259-52.398,72.044c-1.604-0.86-3.229-1.666-4.872-2.418
		c0.962-8.772-1.549-15.87-15.861-21.743c0.318-1.517,0.744-3.629,1.327-6.606c0.564-2.87,1.255-6.434,2.064-10.655
		c1.291,0.454,2.637,1.066,3.804,1.905c2.477,1.77,3.692,4.062,3.486,6.936c-0.377,5.273-0.539,7.428-0.628,8.615
		c-0.116,1.585,2.264,1.784,2.741,0.667c0.042-0.101,4.237-9.897,5.944-13.717c1.355-3.033,1.005-7.888,0.722-11.79
		c-0.107-1.489-0.2-2.774-0.171-3.633c0.045-1.306,1.563-3.435,3.53-4.957c1.414-1.092,2.851-1.681,3.66-1.499
		c0.665,0.147,1.328-0.27,1.478-0.939c0.149-0.667-0.271-1.33-0.939-1.48c-2.146-0.482-4.498,1.021-5.713,1.954
		c-2.177,1.686-4.412,4.448-4.492,6.833c-0.064,1.793,0.153,8.659-1.856,9.023c-1.467,0.264-3.404-0.454-5.307-1.472
		c-1.161-0.62-2.367-1.181-3.532-1.664c1.065-4.907,5.688-27.319,5.688-27.319c0.557-2.963-1.392-5.812-4.354-6.367
		c-2.96-0.558-5.809,1.392-6.366,4.351c-3.501,18.635-4.481,23.036-5.244,26.114c-0.53,1.629-0.249,3.379,0.67,4.742
		c-2.187,11.381-4.02,20.712-4.388,22.131c-0.595,1.742,0.18,3.701,1.877,4.533c0.327,0.164,0.664,0.271,1.005,0.333
		c7.697,2.825,12.003,5.891,13.148,9.357c0.316,0.951,0.436,2.097,0.414,3.387c-11.012-3.898-22.633-5.45-34.177-4.11
		c-10.78,1.251-20.373,4.896-28.474,10.39c-2.444-0.767-4.516-1.628-6.293-2.556c0.12-0.188,0.231-0.385,0.317-0.602
		c0.244-0.581,0.513-1.86,1.699-10.746c0.389-2.893,0.863-6.495,1.413-10.761c1.315,0.375,2.695,0.905,3.911,1.668
		c2.581,1.621,3.932,3.833,3.903,6.716c-0.06,5.286-0.088,7.444-0.104,8.636c-0.02,1.588,2.367,1.642,2.773,0.5
		c0.038-0.103,3.629-10.136,5.103-14.055c1.17-3.107,0.521-7.933,0.004-11.809c-0.197-1.481-0.369-2.759-0.39-3.617
		c-0.036-1.309,1.35-3.525,3.221-5.16c1.346-1.179,2.743-1.853,3.559-1.722c0.675,0.11,1.313-0.352,1.423-1.027
		c0.107-0.673-0.352-1.312-1.026-1.422c-2.175-0.349-4.433,1.292-5.586,2.303c-2.069,1.81-4.135,4.708-4.071,7.089
		c0.049,1.793,0.679,8.636-1.308,9.119c-1.443,0.355-3.419-0.245-5.382-1.146c-1.196-0.55-2.436-1.037-3.625-1.448
		c0.766-4.962,4.018-27.616,4.018-27.616c0.375-2.989-1.744-5.715-4.732-6.09c-2.986-0.376-5.715,1.745-6.092,4.731
		c-2.359,18.813-3.074,23.266-3.646,26.385c-0.433,1.66-0.046,3.387,0.955,4.692c-1.201,9.25-2.253,17.163-2.765,20.647
		c-1.607-1.663-2.835-3.419-3.958-5.205c-11.158-17.749-15.139-20.778-49.153-44.089c-35.141-24.078-33.207-31.583-46.532-52.875
		c-22.093,1.468-54.952,14.145-63.228,22.23C106.854,11.773,85.775,4.354,65.11,5.92C20.743,9.279-4.919,52.755,7.792,103.024
		c12.708,50.275,58.978,88.299,103.342,84.941c18.138-1.373,33.149-9.454,43.692-21.961l106.22,15.31l-0.06-1.388l-104.102-16.492
		c4.813-6.34,8.553-13.681,11.076-21.767l103.927,32.9c0.317,6.104,1.29,12.379,2.973,18.729
		c11.778,44.387,54.037,76.353,94.782,72.082c40.549-4.246,65.424-42.856,55.712-87.257c10.955,4.655,22.78,6.713,34.512,5.497
		c22.129-2.289,39.765-15.752,48.495-34.885l20.592-4.804c0.392,0.604,0.792,1.204,1.216,1.783c1.213-0.124,2.438-0.256,2.824,0.224
		c0.385,0.477,0,1.646-0.372,2.801c0.776,0.865,1.593,1.699,2.449,2.491c1.167-0.358,2.339-0.722,2.812-0.33
		c0.473,0.394,0.316,1.618,0.175,2.827c0.926,0.701,1.89,1.36,2.88,1.975c1.077-0.565,2.158-1.151,2.696-0.851
		c0.539,0.295,0.619,1.524,0.702,2.74c1.044,0.513,2.113,0.976,3.2,1.394c0.95-0.763,1.904-1.543,2.493-1.352
		c0.497,0.161,0.907,1.755,1.214,2.949l-51.67,11.637l0.523,1.293l71.626-13.523c4.939,6.612,6.533,9.147,9.541,13.608l-3.989,2.264
		l-1.274-4.593c-0.366-1.316-1.72-2.09-3.036-1.733c-1.314,0.355-2.098,1.703-1.752,3.023l3.91,14.896
		c0.31,1.185,1.422,1.938,2.596,1.842c0.143-0.012,0.288-0.032,0.43-0.069c1.324-0.352,2.116-1.703,1.769-3.03l-1.399-5.338
		l5.744-3.26c2.693,2.416,6.058,2.135,8.392,0.392C595.521,175.845,596.837,171.485,593.452,167.193z M366.849,125.166
		c8.441,4.749,17.212,12.683,23.917,22.328c-5.779,4.212-12.458,9.068-18.543,13.331l-11.673-3.342l-0.77-3.715L366.849,125.166z
		 M355.027,208.815c-11.464,0.666-23.589-9.921-27.081-23.647c-3.497-13.724,2.96-25.395,14.422-26.065
		c11.465-0.665,23.589,9.916,27.084,23.645C372.949,196.477,366.491,208.142,355.027,208.815z M254.366,93.054
		c-4.396,2.079-15.118,8.18-23.703,12.524c-1.712-1.208-3.366-2.24-4.875-3.061c-2.124-1.155-4.137-2.251-6.049-3.289
		c8.152-4.505,20.593-10.714,28.951-12.21C250.551,88.937,252.435,90.977,254.366,93.054z M236.834,75.634
		c1.919,1.833,3.889,3.717,5.918,5.612c-4.155,1.955-17.771,9.4-28.577,14.951c-3.868-2.108-7.281-3.977-10.352-5.67
		C212.293,85.148,226.873,77.566,236.834,75.634z M230.919,70.055c-5.368,2.532-21.322,11.114-32.903,17.24
		c-3.491-1.967-6.538-3.73-9.406-5.453c8.268-5.991,24.847-14.891,36.196-17.133C226.802,66.331,228.834,68.132,230.919,70.055z
		 M211.143,53.996c2.741,2.509,5.497,5.123,6.573,5.738c-6.727,3.187-23.655,12.29-35.01,18.452
		c-2.994-1.914-6.005-3.923-9.377-6.245C182.203,66.002,198.992,56.359,211.143,53.996z M152.714,91.678
		c0.433,1.596,0.823,3.182,1.171,4.761c-14.199-0.76-30.566-1.607-46.086-2.427c2.06-3.09,2.176-6.463,1.063-8.151l42.074-0.018
		C151.585,87.768,152.177,89.711,152.714,91.678z M107.324,175.492c-36.922,2.783-76.464-30.228-88.315-73.727
		C7.153,58.261,27.475,20.741,64.397,17.952c32.761-2.472,67.581,23.242,83.294,59.458c-16.022,0.261-32.422,0.594-46.827,0.594
		c-1.089,1.186-2.229,2.573-3.376,4.08l-9.221,4.141c0.024-0.384,0.066-0.802,0.082-1.176c-0.467-0.32-0.936-0.617-1.416-0.897
		c-0.844,0.436-1.847,1.164-2.309,0.934c-0.473-0.232-0.515-1.478-0.686-2.414c-0.515-0.205-1.034-0.39-1.557-0.554
		c-0.721,0.621-1.53,1.57-2.037,1.461c-0.52-0.11-0.878-1.325-1.29-2.188c-0.531-0.062-1.063-0.106-1.594-0.123
		c-0.522,0.796-1.044,1.959-1.572,2.006c-0.49,0.041-1.156-1.054-1.749-1.767c-0.457,0.082-0.906,0.185-1.343,0.306
		c-0.216,0.904-0.306,2.193-0.744,2.372c-0.457,0.187-1.451-0.678-2.243-1.161c-0.393,0.213-0.77,0.449-1.134,0.69
		c0.081,0.933,0.427,2.216,0.06,2.535c-0.369,0.327-1.609-0.184-2.519-0.381c-0.293,0.325-0.573,0.664-0.837,1.017
		c0.367,0.856,1.108,1.979,0.855,2.409c-0.249,0.416-1.585,0.296-2.52,0.383c-0.182,0.399-0.354,0.81-0.506,1.229
		c0.596,0.722,1.618,1.592,1.485,2.073c-0.124,0.469-1.436,0.696-2.313,1.018c-0.077,0.446-0.144,0.89-0.19,1.347
		c0.751,0.554,1.936,1.152,1.92,1.65c-0.013,0.477-1.219,0.982-2.007,1.489c0.021,0.459,0.056,0.922,0.106,1.394
		c0.852,0.382,2.11,0.723,2.192,1.209c0.076,0.466-0.987,1.184-1.667,1.826c0.047,0.197,0.098,0.394,0.15,0.597
		c0.077,0.294,0.161,0.584,0.247,0.877c0.924,0.271,2.214,0.428,2.398,0.926c0.183,0.505-0.688,1.445-1.219,2.243
		c0.222,0.495,0.459,0.989,0.708,1.47c0.52,0.05,1.129,0.05,1.625,0.113l-3.369,2.47c0.564-0.965-5.77,4.076-0.818,8.31
		c2.699,2.309,5.889,5.12,7.851,7.137c3.928,4.039,1.372,11.614,0.372,14.66c-0.213-0.01-0.428-0.007-0.639,0.012
		c-3.007,0.249-4.717,3.236-3.814,6.66c0.817,3.108,3.504,5.516,6.239,5.749l64.328,9.274
		C128.944,170.284,118.958,174.613,107.324,175.492z M139.645,160.704l-62.474-9.896c0.267-0.994,0.272-2.137-0.042-3.331
		c-0.394-1.491-1.217-2.821-2.267-3.826c7.637-8.461,13.172-15.445,5.617-22.516c0.475-0.437,0.924-0.806,1.25-0.737
		c0.52,0.114,0.881,1.327,1.29,2.184c0.531,0.068,1.064,0.106,1.594,0.121c0.524-0.789,1.046-1.954,1.572-2.002
		c0.49-0.037,1.153,1.056,1.749,1.766c0.459-0.079,0.906-0.185,1.343-0.305c0.219-0.901,0.306-2.19,0.747-2.371
		c0.455-0.188,1.448,0.677,2.243,1.16c0.39-0.211,0.767-0.447,1.132-0.693c-0.066-0.753-0.304-1.741-0.199-2.258l59.975,18.988
		C150.433,146.275,145.824,154.362,139.645,160.704z M155.321,127.086L98.963,110.21c0.253-0.074,0.507-0.153,0.731-0.232
		c0.079-0.443,0.142-0.89,0.187-1.348c-0.749-0.553-1.934-1.152-1.92-1.648c0.016-0.479,1.221-0.985,2.01-1.488
		c-0.021-0.459-0.055-0.922-0.105-1.393c-0.853-0.381-2.111-0.722-2.189-1.21c-0.029-0.167,0.086-0.362,0.277-0.576l57.862,6.862
		C156.313,115.406,156.133,121.407,155.321,127.086z M154.548,45.66c-0.301-1.004-0.578-2.01-0.85-3.013
		c8.393-11.324,24.041-19.601,37.529-15.772c3.942,2.374,7.702,5.791,11.255,11.002c-4.422-6.482-17.332-9.024-24.973-6.081
		c-8.09,3.107-17.482,12.528-10.531,33.011C160.772,58.993,156.973,52.372,154.548,45.66z M168.451,90.86
		c-0.427-1.689-0.891-3.365-1.396-5.023h0.794c2.167,1.792,4.466,3.646,6.92,5.565c3.014,2.362,5.841,4.586,8.506,6.695
		c-3.667-0.229-8.215-0.495-13.397-0.786C169.472,95.173,168.998,93.023,168.451,90.86z M170.391,131.6
		c1.142-6.524,1.557-13.411,1.171-20.55l11.745,1.392c3.327,8.963,10.786,21.923,19.835,28.963L170.391,131.6z M234.06,150.756
		c-20.679-11.038-30.381-23.167-37.477-36.74l7.176,0.85c11.75,10.166,18.354,17.44,24.404,26.603
		c2.05,3.109,4.002,6.427,7.169,9.678L234.06,150.756z M235.159,109.09c6.944-3.614,17.305-8.922,24.377-10.508
		c2.068,2.16,4.196,4.308,6.406,6.366c-3.916,1.86-15.737,7.563-23.656,11.486C240.137,113.73,237.67,111.248,235.159,109.09z
		 M245.773,121.56c7.278-3.988,18.393-9.748,26.091-11.519c2.162,1.695,4.402,3.257,6.736,4.635
		c-9.203,2.751-23.026,9.134-29.801,14.642C248.24,126.647,247.177,124.043,245.773,121.56z M274.37,149.99
		c-2.502-0.466-4.966-1.024-7.195-1.599c-15.136-3.902,3.954-16.046,19.42-23.122C280.983,132.368,276.828,140.754,274.37,149.99z
		 M365.542,251.304c-32.407,3.42-66.883-23.164-77.27-59.837c-10.537-37.224,7.608-70.885,40.812-74.697
		c10.417-1.194,21.002,0.694,30.939,5.001l-5.639,22.811c-0.748-0.199-1.552-0.26-2.372-0.155c-3.393,0.438-5.79,3.543-5.356,6.939
		l0.399,2.034c-0.511-0.085-1.026-0.159-1.54-0.216l-11.981-3.426c8.778-5.118,13.839-10.159,16.002-14.355
		c1.938-3.754,0.509-7.956-1.644-10.299c-0.937-1.026-2.246-1.89-3.899-2.575c2.984,2.402-0.914,7.126-10.36,14.348
		c-7.015,5.364-14.461,9.516-29.364,11.862c-0.606-2.146-1.193-4.283-1.753-6.362c0.593-0.997,1.223-1.974,1.891-2.924
		c3.386-4.819,7.57-8.742,12.435-11.66c5.049-3.028,10.742-4.916,16.922-5.606c0.107-0.011,0.21-0.023,0.319-0.034
		c1.16-0.123,2.332-0.202,3.503-0.241c-2.808-0.186-5.594-0.134-8.34,0.152c-0.107,0.012-0.211,0.023-0.318,0.035
		c-6.179,0.694-11.873,2.58-16.922,5.606c-4.866,2.92-9.05,6.844-12.437,11.662c-9.032,12.849-11.482,30.748-6.725,49.11
		c2.244,8.672,5.93,16.938,10.953,24.559c4.85,7.372,10.73,13.817,17.468,19.167c6.656,5.287,13.797,9.218,21.229,11.688
		c6.274,2.084,12.52,3.039,18.614,2.847c-4.543-0.302-9.154-1.225-13.777-2.761c-7.429-2.469-14.574-6.402-21.23-11.685
		c-6.739-5.354-12.616-11.803-17.466-19.169c-5.024-7.625-8.709-15.888-10.954-24.562c-0.543-2.093-0.993-4.183-1.346-6.259
		l27.542,8.621c6.087,14.464,20.343,24.547,33.698,23.143c14.703-1.547,22.744-16.433,17.965-33.256
		c-0.099-0.344-0.204-0.681-0.312-1.025l29.33-6.84C418.2,210.73,397.816,247.9,365.542,251.304z M326.263,160.624
		c-2.83,3.475-4.632,7.938-5.176,12.97c-7.82-1.816-10.194-3.633-13.624-14.212c2.444-0.385,4.967-0.904,7.619-1.635
		L326.263,160.624z M304.97,172.548l-9.66-2.957c0.038-3.08,0.298-6.098,0.769-9.021c1.282-0.101,2.562-0.198,3.848-0.307
		c0.107,0.349,0.219,0.7,0.327,1.045C301.754,166.047,303.134,169.677,304.97,172.548z M456.723,171.877
		c-9.354,0.983-18.857-0.75-27.72-4.633l6.559-1.526c0.101,0.027,0.198,0.06,0.296,0.092c5.457,1.677,10.928,2.422,16.316,2.219
		c-3.589-0.196-8.173-1.535-12.346-3.31l49.001-11.432C481.464,163.562,470.263,170.452,456.723,171.877z M497.123,134.225
		l-79.585,18.567c-1.155-1.045-2.276-2.131-3.363-3.262c-0.439-0.756-0.892-1.514-1.352-2.261c1.308-0.944,2.361-1.69,3.086-2.186
		c7.669-5.226,11.625-9.969,14.173-15.324c6.027,5.669,13.729,8.897,21.119,8.118c12.924-1.359,19.491-14.31,15.789-29.227
		c-4.149-16.717-18.088-25.664-31.01-24.306c-1.115,0.117-2.185,0.324-3.204,0.607c-1.201-2.622-4.113-4.132-7.03-3.458
		c-3.332,0.77-5.415,4.099-4.644,7.435l0.78,4.601c-3.04,5.333-3.848,12.466-1.693,20.04c0.374,1.313,0.822,2.591,1.34,3.836
		c-2.102,7.004-1.699,9.569-16.033,19.492c-0.862-1.072-1.747-2.127-2.648-3.164c-2.419-4.655-4.286-9.565-5.563-14.688
		c-4.066-16.258-1.567-32.546,7.043-44.584c3.267-4.566,7.282-8.327,11.937-11.174c4.849-2.965,10.295-4.864,16.172-5.635
		c0.103-0.017,0.2-0.029,0.307-0.04c1.105-0.137,2.216-0.232,3.335-0.29c-2.66-0.13-5.303-0.034-7.916,0.293
		c-0.103,0.013-0.203,0.026-0.307,0.04c-5.871,0.773-11.304,2.669-16.143,5.635c-4.641,2.841-8.643,6.604-11.894,11.171
		c-8.564,12.031-11.017,28.31-6.905,44.563c0.566,2.243,1.244,4.445,2.033,6.604c-1.832-1.68-3.719-3.286-5.651-4.812
		c-9.215-32.934,7.571-63.728,38.191-67.561c30.981-3.883,62.336,21.498,69.46,55.356c0.754,3.591,1.202,7.124,1.363,10.575
		l-42.812,21.087l0.819,1.128l42.056-18.486C498.32,126.827,497.895,130.608,497.123,134.225z M444.798,114.817
		c-1.277-5.3-5.16-9.999-9.125-11.349c-0.046-0.36-0.096-0.729-0.143-1.106c0.499-0.1,1.03-0.136,1.602-0.079
		c4.292,0.424,8.933,5.422,10.257,10.853c1.046,4.267-0.138,7.693-2.696,8.756c0.006-0.003,0.014,0,0.019,0
		c4.469,0.456,6.921-4.05,5.47-10.062c-1.445-6.014-6.245-11.255-10.715-11.71c-1.661-0.168-3.042,0.347-4.049,1.372
		c-0.222-1.685-0.453-3.475-0.685-5.206c3.524-1.773,8.949-0.602,13.511,3.939c3.365,3.353,5.801,7.977,6.86,13.028
		c1.134,5.392,0.511,10.5-1.705,14.009c-0.342,0.537-0.718,1.031-1.121,1.47c1.265-0.668,2.354-1.657,3.224-2.952
		c2.361-3.491,2.902-8.69,1.486-14.261c-1.331-5.208-4.172-10.047-8.009-13.622c-5.034-4.697-10.722-5.642-14.572-4.085
		c-0.195-1.486-0.375-2.844-0.522-3.955c1.119-0.37,2.319-0.597,3.6-0.642c9.721-0.336,20.152,9.389,23.294,21.728
		c3.14,12.339-2.19,22.617-11.917,22.958c-5.988,0.208-12.241-3.412-16.896-9.1c0.298-0.843,0.684-2.06,1.107-3.452
		c1.89,1.98,4.107,3.31,6.256,3.53C443.797,125.335,446.244,120.83,444.798,114.817z M527.8,114.179
		c-0.227,0.539-1.427,0.73-2.615,0.932c-0.358,1.026-0.668,2.076-0.919,3.149c0.893,0.807,1.8,1.62,1.699,2.204
		c-0.097,0.572-1.224,1.028-2.334,1.493c-0.119,1.077-0.185,2.171-0.189,3.278c1.05,0.591,2.113,1.183,2.145,1.777
		c0.012,0.202-0.11,0.423-0.312,0.649l-11.615,2.708c0.647-4.637,0.836-9.46,0.532-14.405l13.263-5.83
		c-0.284,0.498-0.555,1.004-0.809,1.518C527.326,112.638,528.028,113.639,527.8,114.179z M535.055,125.382l-4.448,1.037
		c-0.11-6.123,1.974-11.77,5.632-16.187c0.909,1.405,1.805,2.815,2.676,4.21C536.647,117.57,535.274,121.325,535.055,125.382z
		 M536.609,125.019c0.735-2.941,2.091-5.632,3.954-7.909c1.289,2.109,2.515,4.168,3.639,6.136L536.609,125.019z M550.797,150.011
		c-0.234,2.17-1.937,2.327-3.495,1.568c-3.483-1.698-6.625-4.045-9.216-6.881c-0.892-0.977-1.091-2.662,1.199-3.217
		c2.407-0.583,5.57-1.332,7.284-1.659c3.009-0.581,4.311,1.658,4.457,3.53C551.166,145.117,551.09,147.305,550.797,150.011z
		 M556.491,135.725c0.156-0.009,0.314-0.019,0.474-0.041c2.627-0.365,4.303-2.836,3.752-5.524c-0.557-2.684-3.136-4.568-5.756-4.205
		c-2.502,0.347-4.144,2.609-3.81,5.146c-0.064-0.197-0.115-0.396-0.156-0.601c-0.695-3.344,1.416-6.428,4.708-6.88
		c3.296-0.454,6.527,1.891,7.219,5.234c0.694,3.348-1.414,6.43-4.706,6.885C557.634,135.818,557.054,135.807,556.491,135.725z
		 M553.097,109.895c0.627-0.105,1.267-0.188,1.92-0.243c3.042-0.25,6.039,0.12,8.853,1.004c-1.301,1.244-2.473,2.112-3.521,2.623
		c-0.771,0.373-1.463,0.546-2.116,0.532c-0.912-0.021-1.839-0.352-2.812-1.029C554.637,111.827,553.864,110.866,553.097,109.895z
		 M563.928,154.438c-2.431,0.287-3.332-1.716-3.203-3.161c0.157-1.788,0.343-3.355,0.557-4.724c1.905,2.344,3.854,4.816,5.792,7.319
		C566.052,154.117,565.001,154.307,563.928,154.438z M568.006,106.004c-0.459,0.58-0.907,1.13-1.343,1.645
		c-3.641-1.555-7.678-2.277-11.797-1.937c-1.537,0.124-3.015,0.396-4.423,0.791c-0.433-0.563-0.862-1.128-1.29-1.69
		c-1.041-1.373-0.382-2.776,0.929-3.089c1.368-0.329,2.792-0.557,4.256-0.679c4.273-0.35,8.471,0.253,12.35,1.63
		C568.283,103.239,568.643,105.198,568.006,106.004z M576.335,111.623c0.89-1.071,2.506-1.132,3.943,0.641
		c3.059,3.775,5.19,8.3,5.977,13.251c0.205,1.304,0.313,2.588,0.327,3.856c0.026,2.597-0.874,3.521-2.702,2.848
		c-0.749-0.271-1.462-0.54-2.142-0.806c0.145-1.7,0.089-3.46-0.196-5.247c-0.785-4.941-3.172-9.375-6.569-12.844
		C575.396,112.775,575.85,112.208,576.335,111.623z M570.412,124c-0.589-1.946,0.201-4.46,2.646-8.065
		c3.966,3.599,6.787,8.471,7.653,13.985c0.061,0.386,0.107,0.765,0.147,1.146C574.359,128.455,571.08,126.217,570.412,124z
		 M581.247,144.984c-0.675,0.849-1.407,1.649-2.189,2.404c-1.83-2.701-3.666-5.487-5.456-8.315c1.884,0.608,4.068,1.456,6.591,2.552
		C582.229,142.507,582.14,143.866,581.247,144.984z"/>
	<path fill="#2E3191" d="M41.613,129.909c-5.806-9.238-10.054-19.184-12.632-29.562c-5.45-21.972-2.527-43.133,8.026-58.052
		c3.952-5.591,8.833-10.091,14.502-13.375c5.88-3.409,12.506-5.438,19.689-6.033c0.126-0.011,0.246-0.017,0.373-0.029
		c1.353-0.103,2.709-0.152,4.075-0.152c-3.266-0.325-6.5-0.37-9.695-0.13c-0.127,0.011-0.248,0.018-0.372,0.032
		c-7.187,0.592-13.812,2.619-19.692,6.025c-5.667,3.287-10.548,7.787-14.503,13.381c-10.55,14.917-13.473,36.076-8.022,58.049
		c2.575,10.379,6.825,20.331,12.632,29.562c5.609,8.925,12.413,16.802,20.224,23.403c7.714,6.522,15.999,11.451,24.623,14.661
		c7.29,2.709,14.542,4.073,21.623,4.07c-5.279-0.528-10.631-1.791-16-3.791c-8.625-3.206-16.909-8.136-24.625-14.655
		C54.026,146.709,47.222,138.835,41.613,129.909z"/>
	<path fill="#2E3191" d="M355.771,168.484c-6.542-5.714-14.136-6.164-18.629-3.383c-4.785,2.963-5.665,8.237-5.003,12.914
		c-1.108,2.059-1.404,4.938-0.626,8.177c1.607,6.689,7.172,12.423,12.432,12.802c5.258,0.376,8.221-4.745,6.614-11.433
		c-1.607-6.689-7.172-12.424-12.432-12.799c-1.42-0.103-2.673,0.197-3.712,0.818c0.056-2.991,1.511-6.71,4.12-8.231
		c4.158-2.43,10.827-1.379,16.328,3.763c3.907,3.656,6.701,8.765,7.865,14.388c1.244,6.01,0.428,11.746-2.245,15.743
		c-0.412,0.615-0.859,1.175-1.343,1.678c1.498-0.786,2.799-1.929,3.849-3.4c2.839-3.981,3.564-9.816,1.987-16.018
		C363.499,177.71,360.229,172.375,355.771,168.484z"/>
	<path fill="#2E3191" d="M344.522,171.256c-2.6-0.186-4.636,0.969-5.838,2.99c0.891-0.394,1.914-0.576,3.051-0.5
		c5.053,0.349,10.438,5.812,11.907,11.854c1.155,4.749-0.293,8.62-3.325,9.886c0.005-0.003,0.014,0,0.021,0
		c5.259,0.377,8.223-4.741,6.612-11.432C355.346,177.362,349.782,171.634,344.522,171.256z"/>
</g>
</svg>
